<?xml version="1.0" encoding="utf-8"?>
<!-- Generator: Adobe Illustrator 24.1.2, SVG Export Plug-In . SVG Version: 6.00 Build 0)  -->
<svg xmlns="http://www.w3.org/2000/svg" xmlns:xlink="http://www.w3.org/1999/xlink" version="1.1" id="Layer_1" x="0px" y="0px" width="1247px" height="562px" viewBox="0 0 1247 562" style="enable-background:new 0 0 1247 562;" xml:space="preserve">
<style type="text/css">
	.st0{fill:#FFDF01;}
	.st1{fill:none;stroke:#000000;stroke-width:4;stroke-miterlimit:10;}
</style>
<g>
	<path d="M256.3,480.9c-6.1-5.6-11.6-11-17.4-15.9c-13.9-11.7-29.3-21.1-45.2-29.6c-16.4-8.8-33-17.2-49.4-25.9   c-13.6-7.2-26.7-15.3-39.1-24.5c-0.9-0.7-1.9-1.2-2.6-2.1c-4.4-5.2-10.2-8.2-16.3-10.8c-6.2-2.6-12-6-17.1-10.5   c-9.5-8.6-19.4-17-28.7-25.8c-7.5-7.1-13.9-15.3-19.5-24.1c-18.7-29.4-20.4-60-6-91.6c7.5-16.3,18.7-29.8,32.2-41.5   c13.3-11.7,28.2-21.2,43.8-29.5c22.9-12.2,46.4-22.9,70.7-32c25-9.4,51.1-13.3,77.9-11.6c17.1,1.1,33.4,5.1,48.4,13.7   c11.9,6.8,21.4,16.1,28.5,27.9c1.3,2.2,1.9,4.5,2.1,7.1c0.7,7.4,2,14.7,3,22c0.6,4.6,0.9,9.2-0.3,13.8c-0.5,1.7-1,3.5-1.9,5.1   c-1.7,3-3.4,6.4-7.3,6.9c-4.8,0.7-9.4-0.1-12.8-3.8c-2-2.2-3.6-5-4.9-7.7c-1.7-3.5-2.8-7.3-4.3-10.9c-2.4-6.1-6.1-10.7-13-11.8   c-0.5-0.1-1.1-0.3-1.6-0.6c-15.8-8.1-32.8-8.8-50-7.6c-16.2,1.1-32.2,4-48,7.9c-10.6,2.6-20.8,6.4-31.3,9.5   c-10.5,3.1-20.7,6.8-30.3,12.2c-7.8,4.3-16,8-23.9,12.2c-7.1,3.7-13.7,8.2-19.7,13.5c-8.3,7.4-13.9,16.3-16.3,27.2   c-1.1,5.2-2.8,10.3-3.5,15.5c-1.5,11.6,1.2,22.5,7.1,32.6c4.7,8,10.7,15.1,17.5,21.3c7.2,6.6,14.8,12.8,22.2,19.2   c8.9,7.7,17.8,15.4,26.7,23.1c1.3,1.1,2.6,2.1,4,3c21.9,14.9,44.9,28,67.8,41.1c23.3,13.3,46.7,26.5,68.9,41.7   c3.2,2.2,6.3,4.6,9.6,6.7c11.1,7,16.9,17.7,20.2,29.9c3.2,11.9,1.5,23.2-4.9,33.9c-11.8,19.9-29.4,31.8-51.3,37.9   c-14.8,4.1-30,5.5-45.3,5.6c-13.6,0.1-27.1-0.8-40.7-0.9c-11.6-0.1-22.7-2.3-34-4.6c-14.3-2.8-28.7-4.5-43.1-6.9   c-12.7-2.2-25.1-5.7-36.8-11.3c-2.6-1.3-4.7-3-6.3-5.3c-5.7-8.2-8.3-17.1-5.7-27c0.5-2,1.8-4.1,3.3-5.6c5.9-5.9,13.3-8.3,21.5-7.3   c6.6,0.8,13.2,2.4,19.7,4.1c6.6,1.7,13.1,2.7,19.9,2.8c29.4,0.3,58.8,0.8,88.2,1.1c2.3,0,4.7-0.3,7-0.8c5.9-1.2,11.7-0.4,17.5,0.3   c1.5,0.2,3.1,0.6,4.6,0.4c10.6-1.1,21.2-2.1,31.5-5C246.6,486.1,251.4,484.4,256.3,480.9z M558.9,467.3c1.4-1.5,2.3-3.1,2.5-5.2   c0.8-8.2,2-16.4,2.6-24.6c1.6-20.5,0.8-40.9-2.6-61.1c-1.7-9.9-2.2-19.7-1.8-29.7c0.2-5.6,0.3-11.2,0-16.8   c-0.5-8.6-3.5-16.4-9.5-22.8c-1-1.1-2.3-2.2-3.7-2.5c-10.7-2.6-20.1-0.5-27.2,8.4c-2.6,3.2-4.8,6.9-6.5,10.7   c-2.3,5.1-4,10.4-6,15.7c-2.3,6.2-4.4,12.4-6.8,18.5c-0.6,1.6-1.8,2.9-3,4.9c-1.2-1.9-2.2-3.1-2.8-4.5c-2.9-6.4-5.7-12.8-8.4-19.2   c-2.9-7-5.4-14.1-8.4-21c-2.9-6.6-7-12.4-12-17.6c-4.5-4.6-9.8-6.2-16.1-5c-2.3,0.5-4.6,1.1-6.9,1.7c-1.8,0.4-3.6,1.1-5.3,1.1   c-2.8-0.1-4.3,1.3-5.8,3.3c-9.2,12.2-15.4,25.9-19.4,40.7c-4.8,18.1-6.1,36.7-7.6,55.2c-1.2,14.4-2.5,28.7-4.1,43   c-0.9,8.2-1.1,8.2,4.4,14.6c2.9,3.4,6.2,6.5,10.3,8.4c7.5,3.5,15.2,1.6,20.1-5c3-4,5.3-8.4,6.1-13.2c0.9-5.5,1.5-11.1,1.8-16.7   c0.5-7.7,0.3-15.4,0.9-23.1c0.3-4,2-7.9,2.4-11.9c0.6-5.4,0.5-10.9,0.9-16.3c0.2-3.5,0.4-7,1.1-10.4c0.6-3,2.1-5.7,5.6-7   c1.3,3,2.5,5.7,3.5,8.4c2.1,6.2,3.9,12.5,5.9,18.8c2,6.3,4.2,12.5,7.7,18.1c4.8,7.7,11.5,12.8,20.3,15.2c2.6,0.7,4.9,0.5,7.2-0.7   c6.9-3.4,12.7-8.3,17.3-14.3c4.8-6.3,9-13.2,13.4-19.8c0.6-1,1.3-1.9,1.9-2.9c0.3,0.1,0.6,0.1,0.9,0.2c0.3,1.7,0.7,3.5,0.9,5.2   c1,10.4-0.3,20.7-2.1,30.9c-1.7,9.9-3.6,19.8-3,30c0.6,10.5,4.2,19.9,11,28.2C546.8,476,553.6,473.1,558.9,467.3z M1149.5,429.9   c-6.2,5.8-13.2,10.3-21.6,12.5c-3.1,0.8-6.2,1.5-9.3,2.4c-6.9,1.9-13.9,3.4-20.5,6c-10.3,4-15.3,12.2-16.8,23.2   c-1.1,8,8.4,18.2,16.4,17.6c11.8-0.9,23.4-2.4,34.5-6.3c25.8-9.2,45.9-25.9,61.6-48c2.8-3.9,4.6-8.6,6.3-13.2   c2.3-6.3,2.6-12.9,1.1-19.4c-1.5-6.1-4.3-11.5-8-16.5c-5-6.6-11-12.3-17.3-17.6c-6.8-5.8-13.8-11.4-20.4-17.5   c-4.4-4.1-8.3-8.7-12.3-13.1c-3.1-3.3-3.9-7.3-3.3-11.7c3-23.5,14.3-41.4,35.6-52.6c6.3-3.3,13-5,20.2-5c4.5,0,6.1,1.5,6.1,6   c0,2.6-0.6,5.3-0.7,7.9c-0.1,1.9-0.4,4.2,0.5,5.7c4.2,6.9,10.7,9.3,18.4,8.2c5.6-0.7,7.5-5.7,9.4-10.2c0.6-1.4,1-3,1-4.5   c0-4.5-0.1-8.9-0.6-13.4c-0.6-6.4-1.8-12.7-2.3-19.1c-0.2-2.1-0.4-3.9-1.7-5.4c-1.8-2.1-3.5-4.4-5.5-6.3   c-16.2-15-44.2-16.1-61.7-2.6c-7.5,5.8-15.2,11.4-22.7,17.3c-5.8,4.6-11.7,9.2-16.8,14.5c-19.8,20.5-26.5,45.2-21.4,73   c1.8,9.6,5.3,18.6,12.7,25.5c4,3.7,7.8,7.6,11.9,11.3c5.8,5.3,11.8,10.3,17.6,15.6c5.8,5.3,11.1,11.1,15.2,17.8   c1.6,2.6,2.9,5.3,4.4,8.2C1155.7,423.5,1152.7,426.8,1149.5,429.9z M800.7,252.9c-12.8,5.9-25.2,12.8-36.4,21.5   c-8.9,6.9-16.5,15.1-22.2,24.9c-7.5,12.8-8.8,26.3-5.5,40.5c2.6,11.1,8,20.9,14.9,29.8c6,7.7,12.6,14.9,18.8,22.6   c3.1,3.9,6.1,8,8.5,12.4c2.1,3.8,0.3,5.9-4,6.3c-4.4,0.4-8.9,1-13.2,2c-3.8,0.9-7.4,2.4-11.1,3.7c-5.5,1.8-11,3.1-16.9,2.8   c-1.7-0.1-3.6,0.5-5.1,1.4c-5.8,3.5-8.6,8.9-9.3,15.6c-0.4,3.7,1.1,7.1,1.7,10.7c1.1,7.1,5.3,11.1,11.6,13.6   c13,5.2,13,5.2,27.2,3.5c0.6-0.1,1.1-0.1,1.7-0.2c11.5-1.5,22.9-3.8,33.7-8.4c9.3-4,17.6-9.3,23.7-17.5c7.5-10,10.6-21.1,8.1-33.6   c-1.8-8.7-6-16.2-11.4-23.2c-5.1-6.7-10.7-13-15.8-19.6c-4.1-5.3-8.1-10.7-11.8-16.3c-2.9-4.3-4.7-9.2-5.8-14.3   c-1.1-5-1.2-9.7,2.7-13.6c0.8-0.8,1.2-1.9,1.9-2.8c2.5-3.4,4.9-6.8,7.6-10c2.1-2.5,4.9-4.7,8.2-4.6c4.3,0.1,7.5-1.7,11.2-3.5   c3.6-1.7,7.7-2.2,11.7-3.2c5-1.2,10.2-1.9,15.1-3.6c6.1-2,10-6.5,10.3-13c0.2-4.1-0.4-8.4-1.5-12.4c-2.3-8.2-8-13.3-16.3-15.3   c-2.8-0.7-5.8-0.9-7.8-1.1C816,248.5,808,249.5,800.7,252.9z M589.1,403.5c7.5,0.2,10.7,2.6,12.6,9.8c0.7,2.8,1,5.8,1.7,8.6   c1.1,4.8,2,9.6,3.5,14.2c1.4,4.1,4.1,7.5,8.2,9.2c8.4,3.3,21-2,24.9-10.1c0.8-1.6,0.7-3.1,0.4-4.8c-0.8-4.1-1.7-8.2-1.9-12.4   c-0.7-11.9,4.1-17.6,15.9-19.6c0.3,0,0.6-0.1,0.8-0.1c7.8-0.4,15.6-0.9,23.5-1.3c5.4-0.3,10.9-0.5,16.3-1.1   c5.2-0.5,10.2-1.8,14.8-4.3c9-4.8,14.4-12.1,15.3-22.5c0.9-10.2,1.2-20.4,0.1-30.6c-2.1-18.4-8.7-34.9-20.9-49   c-6.8-7.9-15-14.2-23.7-19.9c-5-3.3-10.6-4.5-16.4-4.2c-3.7,0.2-7.6,0.8-11.1,1.9c-6,1.9-11.8,4.4-17.6,6.7c-1,0.4-2,1.2-2.5,2.1   c-7.1,12.2-14.7,24.2-19.7,37.5c-4.5,11.8-6.5,24-5.3,36.6c0.5,5.8-1.2,9-6.5,11.4c-2.9,1.3-6.1,2-9,3.3c-3.4,1.5-6.8,3.3-9.9,5.3   c-1.1,0.7-2,2.5-2.1,3.8c-0.8,10.3,0.9,20,6.2,29.5C587.5,403.5,588.3,403.4,589.1,403.5z M651.3,325.4c1.3-6.5,4.7-12.2,9.5-16.9   c2.7-2.7,5.4-2.9,8.7-1.5c4.4,1.9,8.1,4.6,10.7,8.5c2.6,3.8,5,7.8,6.9,11.9c2.5,5.6,4.6,11.4,6.6,17.2c1.8,5.2,0.2,8.7-5,10.6   c-3,1.1-6.2,1.7-9.3,2.4c-6.5,1.6-12.9,3.5-19.7,3.4c-0.7,0-1.4,0.2-2.1,0.2c-6.8,0.1-10-3.1-10.3-9.8   C648.6,342.7,649.6,334,651.3,325.4z M814.3,134c-2.6-0.5-4.8,0.1-7,1.6c-7.4,5-15,9.9-22.7,14.4c-8.1,4.8-16.9,8.1-26.3,9.5   c-5,0.8-10,1.3-14.7-1.5c-1.9-1.1-4.2-1.5-6.3-2.3c-2.9-1.1-5.8-2.1-8.5-3.5c-5.2-2.7-8-6.8-7.3-12.9c0.4-4.1,0.9-4.7,5-4.9   c7.3-0.4,14.5-1.3,21.4-3.6c15.9-5.2,28.6-15,39.3-27.7c1.8-2.1,3.3-4.6,4.3-7.1c8.3-22.7,4.8-44-8-64.1c-0.4-0.6-0.8-1.3-1.3-1.6   c-5.5-3.5-10.9-7.3-16.7-10.4c-4.7-2.6-9.9-2.7-15.1-1.1c-12.5,3.8-23,10.7-31.9,20.2c-7.3,7.7-12.9,16.5-17.8,25.9   c-6.1,11.7-10.4,24.1-14.9,36.5c-2.9,7.7-3.2,15.6-2.5,23.6c0.8,8.6,3.3,16.7,6.9,24.5c4.4,9.3,10.4,17.6,16.4,25.8   c4.3,5.8,9.9,9.4,16.5,11.6c9.2,3.1,18.6,4,28.2,2.9c9.8-1.2,19.6-3,29.4-4.5c5.4-0.9,10.3-2.6,14.7-6.3c4.6-4,10.3-6.7,15.3-10.3   c4.2-3,8.3-6.3,11.8-10c5.7-6.2,7.2-13.7,4.5-22.3C822.8,135.5,818.6,134.8,814.3,134z M725.6,95.5c1-2.6,2.5-5,3.4-7.7   c3.2-10.1,10.3-17.8,16-26.3c2-3,5.3-5.3,8.3-7.5c4.3-3.4,12.3-1.2,14.6,5.5c1.2,3.5,1.4,7.2,0.7,10.8c-0.7,3.4-1.7,6.8-2.8,10   c-1.9,5.2-5.2,9.3-9.9,12c-3.5,2-7.2,3.6-10.9,5.2c-2.3,1-4.8,1.5-7.2,2.2c-3.4,0.9-6.7,1.8-10.3,2.8   C724.6,100.5,724.6,98,725.6,95.5z M992.9,448c1.6-2.9,2.9-6,4.4-9.1c1.4-3,2.6-6.2,4.3-9.1c1.4-2.5,3.2-5,5.1-7.1   c2.8-3.1,3.7-3.1,7.3-1.1c2.8,1.6,5.4,3.5,8,5.4c2.5,1.8,4.9,3.7,7.4,5.5c4,2.7,8.3,4.6,13.2,5c6.5,0.5,12.4-0.7,17.4-5.5   c7.1-6.9,12.4-14.8,15.4-24.2c2-6.4,3.3-13.1,3.4-19.8c0.1-9.4-0.3-18.7-0.3-28.1c0-9.5,0.2-19,0.2-28.5c0-1.4,0.1-2.8-0.4-4.1   c-3.1-9.1-6.3-18.2-9.6-27.3c-2.7-7.7-6.1-15-11-21.6c-0.7-1-1.5-2.2-2.6-2.7c-4.1-1.7-8.3-3.4-12.5-4.7c-6.1-1.8-13.1,1.4-14.3,9   c-1.2,7.7-1.1,15.3,0.6,22.9c2.2,9.6,6.3,18.5,9.9,27.6c2.5,6.4,5,12.8,6.8,19.4c2.9,10.5,2.2,20.8-3.2,30.5   c-1.7,3-3.3,3.9-6.5,2.6c-1.9-0.7-3.7-2-5.1-3.5c-2.1-2.4-3.8-5.2-5.6-7.8c-2.2-3.1-4.1-6.4-6.5-9.2c-1.7-2-3.7-3.9-6-5.1   c-4.7-2.5-9.5-4.6-14.4-6.8c-2.5-1.1-5.1-2.3-7.8-3c-8.3-2.1-15.4,3-16.7,11.4c-2.6,16.9-3.7,33.9-4.3,51   c-0.3,9.8-0.9,19.6-1.3,29.4c-0.3,5.6-0.6,11.1-0.9,16.6C980.8,461.7,988.6,455.8,992.9,448z M911.9,462.7   c4.5-0.7,9.2-1.5,13.3-3.5c10.7-5.2,19-13.3,24.5-23.9c2-3.9,3.8-8.2,4.5-12.5c2-13.1,1.6-26.2-1.5-39.2c-4.3-17.5-13-32-28.3-42.1   c-1.6-1-3.5-1.8-5.4-2.1c-8.8-1.2-16.1-5.1-22.1-11.7c-4.4-4.8-11.1-5.5-16.4-1.9c-2.4,1.6-4.5,3.8-6.5,5.9   c-2.6,2.6-4.8,5.5-7.5,7.9c-1.5,1.4-2.1,2.7-1.9,4.7c1.1,8.4-1.2,16.1-5.5,23.2c-2.6,4.3-5.6,8.4-8.1,12.7   c-2.7,4.6-5.5,9.1-7.6,13.9c-3.5,8-4.6,16.4-1.7,25c0.9,2.8,1.2,5.8,2.2,8.5c2,6.1,3.7,12.4,6.6,18.1c5.5,10.7,14.4,17.4,26.5,19   c3.9,0.5,7.8,0.6,13.3,1C896.4,464.7,904.1,463.9,911.9,462.7z M884.8,392.7c2-5.6,5-10.6,9.8-14.3c4.2-3.3,8.7-3.6,13.3-1.2   c5.4,2.8,8.6,7.5,10.8,12.9c0.3,0.8,0.3,1.9,0,2.8c-1.6,5.6-3.2,11.3-5.1,16.8c-0.9,2.6-2,5.2-3.4,7.6c-2.2,3.9-5.8,6-10.3,6.4   c-3.5,0.3-7,0.8-10.4,0.8c-6.3,0-8.8-2.8-8.6-9.2c0-1,0.1-2,0.2-2.6C881.5,405.7,882.5,399,884.8,392.7z M569.1,128.5   c0,1.1,0,2.3,0.2,3.3c0.8,4.6,2.8,8.1,8,8.9c3,0.5,4.6,2.6,5,5.5c0.2,1.4,0.5,2.8,0.4,4.2c-0.9,8.3,0.7,16.5,1.4,24.7   c0.4,4.7,1.1,9.5,2.5,14c2.1,6.7,6.9,10.3,14,10.6c2.1,0.1,3.8-0.4,5.4-1.8c4.9-4.3,7-9.7,6.1-16.1c-0.6-4.1-1.7-8.2-2.5-12.3   c-0.7-3.6-0.8-7.2,0.5-10.7c0.4-1.2,0.4-2.7,0.1-4c-1.3-7.7,0.8-10.6,8.6-11.5c1.5-0.2,3.1-0.2,4.6-0.2c3.8,0,7.6,0,11.3,0   c4.5,0,5.8,0.8,6.2,5.3c0.3,3.4,0.1,7-0.4,10.4c-1.1,7.6-2.2,15.2-0.4,22.9c1,4.3,3.3,7.4,7.2,9.2c5.8,2.6,11.8,2.7,18,1.6   c0.3-2.3,0.7-4.2,0.8-6.1c1.5-15.6,3-31.2,4.4-46.8c0.4-4.2,1.3-8,5.2-10.3c0.7-0.4,1.3-1.1,1.8-1.7c3.6-4,3.7-7.5-0.1-11.4   c-6.1-6.3-9-14-9.6-22.7C667.2,83.1,669,73,670,62.9c0.8-7.8,1.3-15.6,1.3-23.4c-0.1-7.4-4.4-12.6-10.9-15.7c-2.1-1-5-1.1-7.3-0.7   c-4.8,0.8-7.4,4.5-6.8,9.3c1.4,11.5-0.1,22.9-1.5,34.3c-1.6,12.5-3.6,24.9-3.5,37.6c0,3-1.4,4.8-3.9,5.8c-1.5,0.6-3.2,1.1-4.9,1.1   c-6,0-12-0.2-18.1-0.4c-0.4-1.8-0.9-3.3-1.1-4.8c-1.7-9.5-1.1-19-0.4-28.5c0.8-10,1.7-20.1,2.4-30.1c0.5-7.4-4.1-13.2-11.3-14.9   c-4.2-1-9.4,0.7-10.8,5.6c-0.8,2.8-1.9,5.6-2.5,8.4c-1.8,8.4-1.5,17-1.8,25.5c-0.3,7.1-0.6,14.3-1.7,21.3   c-1.5,10.6-6.7,18.9-16.9,23.4c-0.4,0.2-0.7,0.4-1.2,0.7C569.1,121.3,569.1,124.9,569.1,128.5z M491.5,163.3   c0,8.1-0.9,16.2-0.7,24.4c0.1,6.7,6,12,12.7,11.8c4.4-0.1,7.9-2.3,11.4-4.8c1.9-1.3,2.6-2.9,2.7-5.3c1-21.7,2-43.3,3.1-65   c0.3-6,2.3-8.8,8.1-10.6c2.9-0.9,6-1.6,9-1.8c11.4-0.6,21.1-4.9,29.5-12.5c4.9-4.4,8.2-9.6,8.6-16.3c0.1-2-0.1-4.4-1.2-5.9   c-3.2-4.8-7.8-7.8-13.8-7.4c-3.7,0.3-7.4,1.3-11,2.3c-4,1.1-7.9,3-11.9,3.9c-2.9,0.7-6.1,0.7-9.1,0.5c-3-0.3-3.8-1.8-3.1-4.7   c0.6-2.3,1.7-4.5,2.2-6.8c0.5-2.3,1-4.8,0.4-6.9c-2-7.3-7.1-11.9-14.2-14.2c-1.4-0.5-2.6-0.4-3.9,0.5c-8.1,6.2-13.6,13.9-14.7,24.4   c-0.2,1.6-0.8,3.3-1.6,4.6c-4.1,6.9-10.7,8.6-18.1,7.8c-5-0.6-9.9-1.7-14.8-2.7c-6.2-1.3-12.3-2.7-18.7-2.1   c-6.6,0.5-11.7,3.6-14.8,9.6c-1.3,2.6-2.1,5.4-3.1,8.2c-0.7,1.9-0.1,3.5,1.2,5c3.8,4.5,8.4,7.8,13.7,10.1   c5.7,2.4,11.7,3.8,17.9,4.3c8.5,0.7,17,1.2,25.5,1.7c2.3,0.1,3.7,0.9,4.3,3.1c1.2,4.9,3,9.7,3.4,14.6   C491.4,143.2,491.3,153.2,491.5,163.3z M332.7,297.5c-3.2,12.1-4.9,24.4-5,36.9c-0.2,17.5,0,35-0.1,52.5   c-0.1,9.8-0.7,19.6-4.3,28.9c-0.9,2.2-1.4,4.6-1.9,6.9c-2.7,10.9-4.5,21.9-3.7,33.2c0.7,9.4,3.4,18.1,8.9,25.8   c1.9,2.7,4.2,3.8,7.3,4.1c14.4,1.3,21.9-7.5,26.1-17.5c0.4-0.9,0.3-2.2,0.2-3.3c-2.2-13.1-1.2-26.2,0.8-39.3   c2.1-14.1,4.6-28.1,6.6-42.3c1.6-11.5,1.6-23.2-0.4-34.7c-1.4-8.1-2.9-16.2-4.4-24.3c-1.6-8.6-3.9-16.8-9.2-24.1   c-2.7-3.8-6.2-5.5-10.7-5.5c-3.1,0-6.1,0-9.5,0C333.1,296.2,332.9,296.9,332.7,297.5z"/>
	<path class="st0" d="M266.3,475.9c-6.1-5.6-11.6-11-17.4-15.9c-13.9-11.7-29.3-21.1-45.2-29.6c-16.4-8.8-33-17.2-49.4-25.9   c-13.6-7.2-26.7-15.3-39.1-24.5c-0.9-0.7-1.9-1.2-2.6-2.1c-4.4-5.2-10.2-8.2-16.3-10.8c-6.2-2.6-12-6-17.1-10.5   c-9.5-8.6-19.4-17-28.7-25.8c-7.5-7.1-13.9-15.3-19.5-24.1c-18.7-29.4-20.4-60-6-91.6c7.5-16.3,18.7-29.8,32.2-41.5   c13.3-11.7,28.2-21.2,43.8-29.5c22.9-12.2,46.4-22.9,70.7-32c25-9.4,51.1-13.3,77.9-11.6c17.1,1.1,33.4,5.1,48.4,13.7   c11.9,6.8,21.4,16.1,28.5,27.9c1.3,2.2,1.9,4.5,2.1,7.1c0.7,7.4,2,14.7,3,22c0.6,4.6,0.9,9.2-0.3,13.8c-0.5,1.7-1,3.5-1.9,5.1   c-1.7,3-3.4,6.4-7.3,6.9c-4.8,0.7-9.4-0.1-12.8-3.8c-2-2.2-3.6-5-4.9-7.7c-1.7-3.5-2.8-7.3-4.3-10.9c-2.4-6.1-6.1-10.7-13-11.8   c-0.5-0.1-1.1-0.3-1.6-0.6c-15.8-8.1-32.8-8.8-50-7.6c-16.2,1.1-32.2,4-48,7.9c-10.6,2.6-20.8,6.4-31.3,9.5   c-10.5,3.1-20.7,6.8-30.3,12.2c-7.8,4.3-16,8-23.9,12.2c-7.1,3.7-13.7,8.2-19.7,13.5c-8.3,7.4-13.9,16.3-16.3,27.2   c-1.1,5.2-2.8,10.3-3.5,15.5c-1.5,11.6,1.2,22.5,7.1,32.6c4.7,8,10.7,15.1,17.5,21.3c7.2,6.6,14.8,12.8,22.2,19.2   c8.9,7.7,17.8,15.4,26.7,23.1c1.3,1.1,2.6,2.1,4,3c21.9,14.9,44.9,28,67.8,41.1c23.3,13.3,46.7,26.5,68.9,41.7   c3.2,2.2,6.3,4.6,9.6,6.7c11.1,7,16.9,17.7,20.2,29.9c3.2,11.9,1.5,23.2-4.9,33.9c-11.8,19.9-29.4,31.8-51.3,37.9   c-14.8,4.1-30,5.5-45.3,5.6c-13.6,0.1-27.1-0.8-40.7-0.9c-11.6-0.1-22.7-2.3-34-4.6c-14.3-2.8-28.7-4.5-43.1-6.9   c-12.7-2.2-25.1-5.7-36.8-11.3c-2.6-1.3-4.7-3-6.3-5.3c-5.7-8.2-8.3-17.1-5.7-27c0.5-2,1.8-4.1,3.3-5.6c5.9-5.9,13.3-8.3,21.5-7.3   c6.6,0.8,13.2,2.4,19.7,4.1c6.6,1.7,13.1,2.7,19.9,2.8c29.4,0.3,58.8,0.8,88.2,1.1c2.3,0,4.7-0.3,7-0.8c5.9-1.2,11.7-0.4,17.5,0.3   c1.5,0.2,3.1,0.6,4.6,0.4c10.6-1.1,21.2-2.1,31.5-5C256.6,481.1,261.4,479.4,266.3,475.9z M568.9,462.3c1.4-1.5,2.3-3.1,2.5-5.2   c0.8-8.2,2-16.4,2.6-24.6c1.6-20.5,0.8-40.9-2.6-61.1c-1.7-9.9-2.2-19.7-1.8-29.7c0.2-5.6,0.3-11.2,0-16.8   c-0.5-8.6-3.5-16.4-9.5-22.8c-1-1.1-2.3-2.2-3.7-2.5c-10.7-2.6-20.1-0.5-27.2,8.4c-2.6,3.2-4.8,6.9-6.5,10.7   c-2.3,5.1-4,10.4-6,15.7c-2.3,6.2-4.4,12.4-6.8,18.5c-0.6,1.6-1.8,2.9-3,4.9c-1.2-1.9-2.2-3.1-2.8-4.5c-2.9-6.4-5.7-12.8-8.4-19.2   c-2.9-7-5.4-14.1-8.4-21c-2.9-6.6-7-12.4-12-17.6c-4.5-4.6-9.8-6.2-16.1-5c-2.3,0.5-4.6,1.1-6.9,1.7c-1.8,0.4-3.6,1.1-5.3,1.1   c-2.8-0.1-4.3,1.3-5.8,3.3c-9.2,12.2-15.4,25.9-19.4,40.7c-4.8,18.1-6.1,36.7-7.6,55.2c-1.2,14.4-2.5,28.7-4.1,43   c-0.9,8.2-1.1,8.2,4.4,14.6c2.9,3.4,6.2,6.5,10.3,8.4c7.5,3.5,15.2,1.6,20.1-5c3-4,5.3-8.4,6.1-13.2c0.9-5.5,1.5-11.1,1.8-16.7   c0.5-7.7,0.3-15.4,0.9-23.1c0.3-4,2-7.9,2.4-11.9c0.6-5.4,0.5-10.9,0.9-16.3c0.2-3.5,0.4-7,1.1-10.4c0.6-3,2.1-5.7,5.6-7   c1.3,3,2.5,5.7,3.5,8.4c2.1,6.2,3.9,12.5,5.9,18.8c2,6.3,4.2,12.5,7.7,18.1c4.8,7.7,11.5,12.8,20.3,15.2c2.6,0.7,4.9,0.5,7.2-0.7   c6.9-3.4,12.7-8.3,17.3-14.3c4.8-6.3,9-13.2,13.4-19.8c0.6-1,1.3-1.9,1.9-2.9c0.3,0.1,0.6,0.1,0.9,0.2c0.3,1.7,0.7,3.5,0.9,5.2   c1,10.4-0.3,20.7-2.1,30.9c-1.7,9.9-3.6,19.8-3,30c0.6,10.5,4.2,19.9,11,28.2C556.8,471,563.6,468.1,568.9,462.3z M1159.5,424.9   c-6.2,5.8-13.2,10.3-21.6,12.5c-3.1,0.8-6.2,1.5-9.3,2.4c-6.9,1.9-13.9,3.4-20.5,6c-10.3,4-15.3,12.2-16.8,23.2   c-1.1,8,8.4,18.2,16.4,17.6c11.8-0.9,23.4-2.4,34.5-6.3c25.8-9.2,45.9-25.9,61.6-48c2.8-3.9,4.6-8.6,6.3-13.2   c2.3-6.3,2.6-12.9,1.1-19.4c-1.5-6.1-4.3-11.5-8-16.5c-5-6.6-11-12.3-17.3-17.6c-6.8-5.8-13.8-11.4-20.4-17.5   c-4.4-4.1-8.3-8.7-12.3-13.1c-3.1-3.3-3.9-7.3-3.3-11.7c3-23.5,14.3-41.4,35.6-52.6c6.3-3.3,13-5,20.2-5c4.5,0,6.1,1.5,6.1,6   c0,2.6-0.6,5.3-0.7,7.9c-0.1,1.9-0.4,4.2,0.5,5.7c4.2,6.9,10.7,9.3,18.4,8.2c5.6-0.7,7.5-5.7,9.4-10.2c0.6-1.4,1-3,1-4.5   c0-4.5-0.1-8.9-0.6-13.4c-0.6-6.4-1.8-12.7-2.3-19.1c-0.2-2.1-0.4-3.9-1.7-5.4c-1.8-2.1-3.5-4.4-5.5-6.3   c-16.2-15-44.2-16.1-61.7-2.6c-7.5,5.8-15.2,11.4-22.7,17.3c-5.8,4.6-11.7,9.2-16.8,14.5c-19.8,20.5-26.5,45.2-21.4,73   c1.8,9.6,5.3,18.6,12.7,25.5c4,3.7,7.8,7.6,11.9,11.3c5.8,5.3,11.8,10.3,17.6,15.6c5.8,5.3,11.1,11.1,15.2,17.8   c1.6,2.6,2.9,5.3,4.4,8.2C1165.7,418.5,1162.7,421.8,1159.5,424.9z M810.7,247.9c-12.8,5.9-25.2,12.8-36.4,21.5   c-8.9,6.9-16.5,15.1-22.2,24.9c-7.5,12.8-8.8,26.3-5.5,40.5c2.6,11.1,8,20.9,14.9,29.8c6,7.7,12.6,14.9,18.8,22.6   c3.1,3.9,6.1,8,8.5,12.4c2.1,3.8,0.3,5.9-4,6.3c-4.4,0.4-8.9,1-13.2,2c-3.8,0.9-7.4,2.4-11.1,3.7c-5.5,1.8-11,3.1-16.9,2.8   c-1.7-0.1-3.6,0.5-5.1,1.4c-5.8,3.5-8.6,8.9-9.3,15.6c-0.4,3.7,1.1,7.1,1.7,10.7c1.1,7.1,5.3,11.1,11.6,13.6   c13,5.2,13,5.2,27.2,3.5c0.6-0.1,1.1-0.1,1.7-0.2c11.5-1.5,22.9-3.8,33.7-8.4c9.3-4,17.6-9.3,23.7-17.5c7.5-10,10.6-21.1,8.1-33.6   c-1.8-8.7-6-16.2-11.4-23.2c-5.1-6.7-10.7-13-15.8-19.6c-4.1-5.3-8.1-10.7-11.8-16.3c-2.9-4.3-4.7-9.2-5.8-14.3   c-1.1-5-1.2-9.7,2.7-13.6c0.8-0.8,1.2-1.9,1.9-2.8c2.5-3.4,4.9-6.8,7.6-10c2.1-2.5,4.9-4.7,8.2-4.6c4.3,0.1,7.5-1.7,11.2-3.5   c3.6-1.7,7.7-2.2,11.7-3.2c5-1.2,10.2-1.9,15.1-3.6c6.1-2,10-6.5,10.3-13c0.2-4.1-0.4-8.4-1.5-12.4c-2.3-8.2-8-13.3-16.3-15.3   c-2.8-0.7-5.8-0.9-7.8-1.1C826,243.5,818,244.5,810.7,247.9z M599.1,398.5c7.5,0.2,10.7,2.6,12.6,9.8c0.7,2.8,1,5.8,1.7,8.6   c1.1,4.8,2,9.6,3.5,14.2c1.4,4.1,4.1,7.5,8.2,9.2c8.4,3.3,21-2,24.9-10.1c0.8-1.6,0.7-3.1,0.4-4.8c-0.8-4.1-1.7-8.2-1.9-12.4   c-0.7-11.9,4.1-17.6,15.9-19.6c0.3,0,0.6-0.1,0.8-0.1c7.8-0.4,15.6-0.9,23.5-1.3c5.4-0.3,10.9-0.5,16.3-1.1   c5.2-0.5,10.2-1.8,14.8-4.3c9-4.8,14.4-12.1,15.3-22.5c0.9-10.2,1.2-20.4,0.1-30.6c-2.1-18.4-8.7-34.9-20.9-49   c-6.8-7.9-15-14.2-23.7-19.9c-5-3.3-10.6-4.5-16.4-4.2c-3.7,0.2-7.6,0.8-11.1,1.9c-6,1.9-11.8,4.4-17.6,6.7c-1,0.4-2,1.2-2.5,2.1   c-7.1,12.2-14.7,24.2-19.7,37.5c-4.5,11.8-6.5,24-5.3,36.6c0.5,5.8-1.2,9-6.5,11.4c-2.9,1.3-6.1,2-9,3.3c-3.4,1.5-6.8,3.3-9.9,5.3   c-1.1,0.7-2,2.5-2.1,3.8c-0.8,10.3,0.9,20,6.2,29.5C597.5,398.5,598.3,398.4,599.1,398.5z M661.3,320.4c1.3-6.5,4.7-12.2,9.5-16.9   c2.7-2.7,5.4-2.9,8.7-1.5c4.4,1.9,8.1,4.6,10.7,8.5c2.6,3.8,5,7.8,6.9,11.9c2.5,5.6,4.6,11.4,6.6,17.2c1.8,5.2,0.2,8.7-5,10.6   c-3,1.1-6.2,1.7-9.3,2.4c-6.5,1.6-12.9,3.5-19.7,3.4c-0.7,0-1.4,0.2-2.1,0.2c-6.8,0.1-10-3.1-10.3-9.8   C658.6,337.7,659.6,329,661.3,320.4z M824.3,129c-2.6-0.5-4.8,0.1-7,1.6c-7.4,5-15,9.9-22.7,14.4c-8.1,4.8-16.9,8.1-26.3,9.5   c-5,0.8-10,1.3-14.7-1.5c-1.9-1.1-4.2-1.5-6.3-2.3c-2.9-1.1-5.8-2.1-8.5-3.5c-5.2-2.7-8-6.8-7.3-12.9c0.4-4.1,0.9-4.7,5-4.9   c7.3-0.4,14.5-1.3,21.4-3.6c15.9-5.2,28.6-15,39.3-27.7c1.8-2.1,3.3-4.6,4.3-7.1c8.3-22.7,4.8-44-8-64.1c-0.4-0.6-0.8-1.3-1.3-1.6   c-5.5-3.5-10.9-7.3-16.7-10.4c-4.7-2.6-9.9-2.7-15.1-1.1c-12.5,3.8-23,10.7-31.9,20.2c-7.3,7.7-12.9,16.5-17.8,25.9   c-6.1,11.7-10.4,24.1-14.9,36.5c-2.9,7.7-3.2,15.6-2.5,23.6c0.8,8.6,3.3,16.7,6.9,24.5c4.4,9.3,10.4,17.6,16.4,25.8   c4.3,5.8,9.9,9.4,16.5,11.6c9.2,3.1,18.6,4,28.2,2.9c9.8-1.2,19.6-3,29.4-4.5c5.4-0.9,10.3-2.6,14.7-6.3c4.6-4,10.3-6.7,15.3-10.3   c4.2-3,8.3-6.3,11.8-10c5.7-6.2,7.2-13.7,4.5-22.3C832.8,130.5,828.6,129.8,824.3,129z M735.6,90.5c1-2.6,2.5-5,3.4-7.7   c3.2-10.1,10.3-17.8,16-26.3c2-3,5.3-5.3,8.3-7.5c4.3-3.4,12.3-1.2,14.6,5.5c1.2,3.5,1.4,7.2,0.7,10.8c-0.7,3.4-1.7,6.8-2.8,10   c-1.9,5.2-5.2,9.3-9.9,12c-3.5,2-7.2,3.6-10.9,5.2c-2.3,1-4.8,1.5-7.2,2.2c-3.4,0.9-6.7,1.8-10.3,2.8   C734.6,95.5,734.6,93,735.6,90.5z M1002.9,443c1.6-2.9,2.9-6,4.4-9.1c1.4-3,2.6-6.2,4.3-9.1c1.4-2.5,3.2-5,5.1-7.1   c2.8-3.1,3.7-3.1,7.3-1.1c2.8,1.6,5.4,3.5,8,5.4c2.5,1.8,4.9,3.7,7.4,5.5c4,2.7,8.3,4.6,13.2,5c6.5,0.5,12.4-0.7,17.4-5.5   c7.1-6.9,12.4-14.8,15.4-24.2c2-6.4,3.3-13.1,3.4-19.8c0.1-9.4-0.3-18.7-0.3-28.1c0-9.5,0.2-19,0.2-28.5c0-1.4,0.1-2.8-0.4-4.1   c-3.1-9.1-6.3-18.2-9.6-27.3c-2.7-7.7-6.1-15-11-21.6c-0.7-1-1.5-2.2-2.6-2.7c-4.1-1.7-8.3-3.4-12.5-4.7c-6.1-1.8-13.1,1.4-14.3,9   c-1.2,7.7-1.1,15.3,0.6,22.9c2.2,9.6,6.3,18.5,9.9,27.6c2.5,6.4,5,12.8,6.8,19.4c2.9,10.5,2.2,20.8-3.2,30.5   c-1.7,3-3.3,3.9-6.5,2.6c-1.9-0.7-3.7-2-5.1-3.5c-2.1-2.4-3.8-5.2-5.6-7.8c-2.2-3.1-4.1-6.4-6.5-9.2c-1.7-2-3.8-3.9-6-5.1   c-4.7-2.5-9.5-4.6-14.4-6.8c-2.5-1.1-5.1-2.3-7.8-3c-8.3-2.1-15.4,3-16.7,11.4c-2.6,16.9-3.7,33.9-4.3,51   c-0.3,9.8-0.9,19.6-1.3,29.4c-0.3,5.6-0.6,11.1-0.9,16.6C990.8,456.7,998.6,450.8,1002.9,443z M921.9,457.7   c4.5-0.7,9.2-1.5,13.3-3.5c10.7-5.2,19-13.3,24.5-23.9c2-3.9,3.8-8.2,4.5-12.5c2-13.1,1.6-26.2-1.5-39.2c-4.3-17.5-13-32-28.3-42.1   c-1.6-1-3.5-1.8-5.4-2.1c-8.8-1.2-16.1-5.1-22.1-11.7c-4.4-4.8-11.1-5.5-16.4-1.9c-2.4,1.6-4.5,3.8-6.5,5.9   c-2.6,2.6-4.8,5.5-7.5,7.9c-1.5,1.4-2.1,2.7-1.9,4.7c1.1,8.4-1.2,16.1-5.5,23.2c-2.6,4.3-5.6,8.4-8.1,12.7   c-2.7,4.6-5.5,9.1-7.6,13.9c-3.5,8-4.6,16.4-1.7,25c0.9,2.8,1.2,5.8,2.2,8.5c2,6.1,3.7,12.4,6.6,18.1c5.5,10.7,14.4,17.4,26.5,19   c3.9,0.5,7.8,0.6,13.3,1C906.4,459.7,914.1,458.9,921.9,457.7z M894.8,387.7c2-5.6,5-10.6,9.8-14.3c4.2-3.3,8.7-3.6,13.3-1.2   c5.4,2.8,8.6,7.5,10.8,12.9c0.3,0.8,0.3,1.9,0,2.8c-1.6,5.6-3.2,11.3-5.1,16.8c-0.9,2.6-2,5.2-3.4,7.6c-2.2,3.9-5.8,6-10.3,6.4   c-3.5,0.3-7,0.8-10.4,0.8c-6.3,0-8.8-2.8-8.6-9.2c0-1,0.1-2,0.2-2.6C891.5,400.7,892.5,394,894.8,387.7z M579.1,123.5   c0,1.1,0,2.3,0.2,3.3c0.8,4.6,2.8,8.1,8,8.9c3,0.5,4.6,2.6,5,5.5c0.2,1.4,0.5,2.8,0.4,4.2c-0.9,8.3,0.7,16.5,1.4,24.7   c0.4,4.7,1.1,9.5,2.5,14c2.1,6.7,6.9,10.3,14,10.6c2.1,0.1,3.8-0.4,5.4-1.8c4.9-4.3,7-9.7,6.1-16.1c-0.6-4.1-1.7-8.2-2.5-12.3   c-0.7-3.6-0.8-7.2,0.5-10.7c0.4-1.2,0.4-2.7,0.1-4c-1.3-7.7,0.8-10.6,8.6-11.5c1.5-0.2,3.1-0.2,4.6-0.2c3.8,0,7.6,0,11.3,0   c4.5,0,5.8,0.8,6.2,5.3c0.3,3.4,0.1,7-0.4,10.4c-1.1,7.6-2.2,15.2-0.4,22.9c1,4.3,3.3,7.4,7.2,9.2c5.8,2.6,11.8,2.7,18,1.6   c0.3-2.3,0.7-4.2,0.8-6.1c1.5-15.6,3-31.2,4.4-46.8c0.4-4.2,1.3-8,5.2-10.3c0.7-0.4,1.3-1.1,1.8-1.7c3.6-4,3.7-7.5-0.1-11.4   c-6.1-6.3-9-14-9.6-22.7C677.2,78.1,679,68,680,57.9c0.8-7.8,1.3-15.6,1.3-23.4c-0.1-7.4-4.4-12.6-10.9-15.7c-2.1-1-5-1.1-7.3-0.7   c-4.8,0.8-7.4,4.5-6.8,9.3c1.4,11.5-0.1,22.9-1.5,34.3c-1.6,12.5-3.6,24.9-3.5,37.6c0,3-1.4,4.8-3.9,5.8c-1.5,0.6-3.2,1.1-4.9,1.1   c-6,0-12-0.2-18.1-0.4c-0.4-1.8-0.9-3.3-1.1-4.8c-1.7-9.5-1.1-19-0.4-28.5c0.8-10,1.7-20.1,2.4-30.1c0.5-7.4-4.1-13.2-11.3-14.9   c-4.2-1-9.4,0.7-10.8,5.6c-0.8,2.8-1.9,5.6-2.5,8.4c-1.8,8.4-1.5,17-1.8,25.5c-0.3,7.1-0.6,14.3-1.7,21.3   c-1.5,10.6-6.7,18.9-16.9,23.4c-0.4,0.2-0.7,0.4-1.2,0.7C579.1,116.3,579.1,119.9,579.1,123.5z M501.5,158.3   c0,8.1-0.9,16.2-0.7,24.4c0.1,6.7,6,12,12.7,11.8c4.4-0.1,7.9-2.3,11.4-4.8c1.9-1.3,2.6-2.9,2.7-5.3c1-21.7,2-43.3,3.1-65   c0.3-6,2.3-8.8,8.1-10.6c2.9-0.9,6-1.6,9-1.8c11.4-0.6,21.1-4.9,29.5-12.5c4.9-4.4,8.2-9.6,8.6-16.3c0.1-2-0.1-4.4-1.2-5.9   c-3.2-4.8-7.8-7.8-13.8-7.4c-3.7,0.3-7.4,1.3-11,2.3c-4,1.1-7.9,3-11.9,3.9c-2.9,0.7-6.1,0.7-9.1,0.5c-3-0.3-3.8-1.8-3.1-4.7   c0.6-2.3,1.7-4.5,2.2-6.8c0.5-2.3,1-4.8,0.4-6.9c-2-7.3-7.1-11.9-14.2-14.2c-1.4-0.5-2.6-0.4-3.9,0.5c-8.1,6.2-13.6,13.9-14.7,24.4   c-0.2,1.6-0.8,3.3-1.6,4.6c-4.1,6.9-10.7,8.6-18.1,7.8c-5-0.6-9.9-1.7-14.8-2.7c-6.2-1.3-12.3-2.7-18.7-2.1   c-6.6,0.5-11.7,3.6-14.8,9.6c-1.3,2.6-2.1,5.4-3.1,8.2c-0.7,1.9-0.1,3.5,1.2,5c3.8,4.5,8.4,7.8,13.7,10.1   c5.7,2.4,11.7,3.8,17.9,4.3c8.5,0.7,17,1.2,25.5,1.7c2.3,0.1,3.7,0.9,4.3,3.1c1.2,4.9,3,9.7,3.4,14.6   C501.4,138.2,501.3,148.2,501.5,158.3z M342.7,292.5c-3.2,12.1-4.9,24.4-5,36.9c-0.2,17.5,0,35-0.1,52.5   c-0.1,9.8-0.7,19.6-4.3,28.9c-0.9,2.2-1.4,4.6-1.9,6.9c-2.7,10.9-4.5,21.9-3.7,33.2c0.7,9.4,3.4,18.1,8.9,25.8   c1.9,2.7,4.2,3.8,7.3,4.1c14.4,1.3,21.9-7.5,26.1-17.5c0.4-0.9,0.3-2.2,0.2-3.3c-2.2-13.1-1.2-26.2,0.8-39.3   c2.1-14.1,4.6-28.1,6.6-42.3c1.6-11.5,1.6-23.2-0.4-34.7c-1.4-8.1-2.9-16.2-4.4-24.3c-1.6-8.6-3.9-16.8-9.2-24.1   c-2.7-3.8-6.2-5.5-10.7-5.5c-3.1,0-6.1,0-9.5,0C343.1,291.2,342.9,291.9,342.7,292.5z"/>
	<path class="st1" d="M266.3,475.9c-6.1-5.6-11.6-11-17.4-15.9c-13.9-11.7-29.3-21.1-45.2-29.6c-16.4-8.8-33-17.2-49.4-25.9   c-13.6-7.2-26.7-15.3-39.1-24.5c-0.9-0.7-1.9-1.2-2.6-2.1c-4.4-5.2-10.2-8.2-16.3-10.8c-6.2-2.6-12-6-17.1-10.5   c-9.5-8.6-19.4-17-28.7-25.8c-7.5-7.1-13.9-15.3-19.5-24.1c-18.7-29.4-20.4-60-6-91.6c7.5-16.3,18.7-29.8,32.2-41.5   c13.3-11.7,28.2-21.2,43.8-29.5c22.9-12.2,46.4-22.9,70.7-32c25-9.4,51.1-13.3,77.9-11.6c17.1,1.1,33.4,5.1,48.4,13.7   c11.9,6.8,21.4,16.1,28.5,27.9c1.3,2.2,1.9,4.5,2.1,7.1c0.7,7.4,2,14.7,3,22c0.6,4.6,0.9,9.2-0.3,13.8c-0.5,1.7-1,3.5-1.9,5.1   c-1.7,3-3.4,6.4-7.3,6.9c-4.8,0.7-9.4-0.1-12.8-3.8c-2-2.2-3.6-5-4.9-7.7c-1.7-3.5-2.8-7.3-4.3-10.9c-2.4-6.1-6.1-10.7-13-11.8   c-0.5-0.1-1.1-0.3-1.6-0.6c-15.8-8.1-32.8-8.8-50-7.6c-16.2,1.1-32.2,4-48,7.9c-10.6,2.6-20.8,6.4-31.3,9.5   c-10.5,3.1-20.7,6.8-30.3,12.2c-7.8,4.3-16,8-23.9,12.2c-7.1,3.7-13.7,8.2-19.7,13.5c-8.3,7.4-13.9,16.3-16.3,27.2   c-1.1,5.2-2.8,10.3-3.5,15.5c-1.5,11.6,1.2,22.5,7.1,32.6c4.7,8,10.7,15.1,17.5,21.3c7.2,6.6,14.8,12.8,22.2,19.2   c8.9,7.7,17.8,15.4,26.7,23.1c1.3,1.1,2.6,2.1,4,3c21.9,14.9,44.9,28,67.8,41.1c23.3,13.3,46.7,26.5,68.9,41.7   c3.2,2.2,6.3,4.6,9.6,6.7c11.1,7,16.9,17.7,20.2,29.9c3.2,11.9,1.5,23.2-4.9,33.9c-11.8,19.9-29.4,31.8-51.3,37.9   c-14.8,4.1-30,5.5-45.3,5.6c-13.6,0.1-27.1-0.8-40.7-0.9c-11.6-0.1-22.7-2.3-34-4.6c-14.3-2.8-28.7-4.5-43.1-6.9   c-12.7-2.2-25.1-5.7-36.8-11.3c-2.6-1.3-4.7-3-6.3-5.3c-5.7-8.2-8.3-17.1-5.7-27c0.5-2,1.8-4.1,3.3-5.6c5.9-5.9,13.3-8.3,21.5-7.3   c6.6,0.8,13.2,2.4,19.7,4.1c6.6,1.7,13.1,2.7,19.9,2.8c29.4,0.3,58.8,0.8,88.2,1.1c2.3,0,4.7-0.3,7-0.8c5.9-1.2,11.7-0.4,17.5,0.3   c1.5,0.2,3.1,0.6,4.6,0.4c10.6-1.1,21.2-2.1,31.5-5C256.6,481.1,261.4,479.4,266.3,475.9z M568.9,462.3c1.4-1.5,2.3-3.1,2.5-5.2   c0.8-8.2,2-16.4,2.6-24.6c1.6-20.5,0.8-40.9-2.6-61.1c-1.7-9.9-2.2-19.7-1.8-29.7c0.2-5.6,0.3-11.2,0-16.8   c-0.5-8.6-3.5-16.4-9.5-22.8c-1-1.1-2.3-2.2-3.7-2.5c-10.7-2.6-20.1-0.5-27.2,8.4c-2.6,3.2-4.8,6.9-6.5,10.7   c-2.3,5.1-4,10.4-6,15.7c-2.3,6.2-4.4,12.4-6.8,18.5c-0.6,1.6-1.8,2.9-3,4.9c-1.2-1.9-2.2-3.1-2.8-4.5c-2.9-6.4-5.7-12.8-8.4-19.2   c-2.9-7-5.4-14.1-8.4-21c-2.9-6.6-7-12.4-12-17.6c-4.5-4.6-9.8-6.2-16.1-5c-2.3,0.5-4.6,1.1-6.9,1.7c-1.8,0.4-3.6,1.1-5.3,1.1   c-2.8-0.1-4.3,1.3-5.8,3.3c-9.2,12.2-15.4,25.9-19.4,40.7c-4.8,18.1-6.1,36.7-7.6,55.2c-1.2,14.4-2.5,28.7-4.1,43   c-0.9,8.2-1.1,8.2,4.4,14.6c2.9,3.4,6.2,6.5,10.3,8.4c7.5,3.5,15.2,1.6,20.1-5c3-4,5.3-8.4,6.1-13.2c0.9-5.5,1.5-11.1,1.8-16.7   c0.5-7.7,0.3-15.4,0.9-23.1c0.3-4,2-7.9,2.4-11.9c0.6-5.4,0.5-10.9,0.9-16.3c0.2-3.5,0.4-7,1.1-10.4c0.6-3,2.1-5.7,5.6-7   c1.3,3,2.5,5.7,3.5,8.4c2.1,6.2,3.9,12.5,5.9,18.8c2,6.3,4.2,12.5,7.7,18.1c4.8,7.7,11.5,12.8,20.3,15.2c2.6,0.7,4.9,0.5,7.2-0.7   c6.9-3.4,12.7-8.3,17.3-14.3c4.8-6.3,9-13.2,13.4-19.8c0.6-1,1.3-1.9,1.9-2.9c0.3,0.1,0.6,0.1,0.9,0.2c0.3,1.7,0.7,3.5,0.9,5.2   c1,10.4-0.3,20.7-2.1,30.9c-1.7,9.9-3.6,19.8-3,30c0.6,10.5,4.2,19.9,11,28.2C556.8,471,563.6,468.1,568.9,462.3z M1159.5,424.9   c-6.2,5.8-13.2,10.3-21.6,12.5c-3.1,0.8-6.2,1.5-9.3,2.4c-6.9,1.9-13.9,3.4-20.5,6c-10.3,4-15.3,12.2-16.8,23.2   c-1.1,8,8.4,18.2,16.4,17.6c11.8-0.9,23.4-2.4,34.5-6.3c25.8-9.2,45.9-25.9,61.6-48c2.8-3.9,4.6-8.6,6.3-13.2   c2.3-6.3,2.6-12.9,1.1-19.4c-1.5-6.1-4.3-11.5-8-16.5c-5-6.6-11-12.3-17.3-17.6c-6.8-5.8-13.8-11.4-20.4-17.5   c-4.4-4.1-8.3-8.7-12.3-13.1c-3.1-3.3-3.9-7.3-3.3-11.7c3-23.5,14.3-41.4,35.6-52.6c6.3-3.3,13-5,20.2-5c4.5,0,6.1,1.5,6.1,6   c0,2.6-0.6,5.3-0.7,7.9c-0.1,1.9-0.4,4.2,0.5,5.7c4.2,6.9,10.7,9.3,18.4,8.2c5.6-0.7,7.5-5.7,9.4-10.2c0.6-1.4,1-3,1-4.5   c0-4.5-0.1-8.9-0.6-13.4c-0.6-6.4-1.8-12.7-2.3-19.1c-0.2-2.1-0.4-3.9-1.7-5.4c-1.8-2.1-3.5-4.4-5.5-6.3   c-16.2-15-44.2-16.1-61.7-2.6c-7.5,5.8-15.2,11.4-22.7,17.3c-5.8,4.6-11.7,9.2-16.8,14.5c-19.8,20.5-26.5,45.2-21.4,73   c1.8,9.6,5.3,18.6,12.7,25.5c4,3.7,7.8,7.6,11.9,11.3c5.8,5.3,11.8,10.3,17.6,15.6c5.8,5.3,11.1,11.1,15.2,17.8   c1.6,2.6,2.9,5.3,4.4,8.2C1165.7,418.5,1162.7,421.8,1159.5,424.9z M810.7,247.9c-12.8,5.9-25.2,12.8-36.4,21.5   c-8.9,6.9-16.5,15.1-22.2,24.9c-7.5,12.8-8.8,26.3-5.5,40.5c2.6,11.1,8,20.9,14.9,29.8c6,7.7,12.6,14.9,18.8,22.6   c3.1,3.9,6.1,8,8.5,12.4c2.1,3.8,0.3,5.9-4,6.3c-4.4,0.4-8.9,1-13.2,2c-3.8,0.9-7.4,2.4-11.1,3.7c-5.5,1.8-11,3.1-16.9,2.8   c-1.7-0.1-3.6,0.5-5.1,1.4c-5.8,3.5-8.6,8.9-9.3,15.6c-0.4,3.7,1.1,7.1,1.7,10.7c1.1,7.1,5.3,11.1,11.6,13.6   c13,5.2,13,5.2,27.2,3.5c0.6-0.1,1.1-0.1,1.7-0.2c11.5-1.5,22.9-3.8,33.7-8.4c9.3-4,17.6-9.3,23.7-17.5c7.5-10,10.6-21.1,8.1-33.6   c-1.8-8.7-6-16.2-11.4-23.2c-5.1-6.7-10.7-13-15.8-19.6c-4.1-5.3-8.1-10.7-11.8-16.3c-2.9-4.3-4.7-9.2-5.8-14.3   c-1.1-5-1.2-9.7,2.7-13.6c0.8-0.8,1.2-1.9,1.9-2.8c2.5-3.4,4.9-6.8,7.6-10c2.1-2.5,4.9-4.7,8.2-4.6c4.3,0.1,7.5-1.7,11.2-3.5   c3.6-1.7,7.7-2.2,11.7-3.2c5-1.2,10.2-1.9,15.1-3.6c6.1-2,10-6.5,10.3-13c0.2-4.1-0.4-8.4-1.5-12.4c-2.3-8.2-8-13.3-16.3-15.3   c-2.8-0.7-5.8-0.9-7.8-1.1C826,243.5,818,244.5,810.7,247.9z M599.1,398.5c7.5,0.2,10.7,2.6,12.6,9.8c0.7,2.8,1,5.8,1.7,8.6   c1.1,4.8,2,9.6,3.5,14.2c1.4,4.1,4.1,7.5,8.2,9.2c8.4,3.3,21-2,24.9-10.1c0.8-1.6,0.7-3.1,0.4-4.8c-0.8-4.1-1.7-8.2-1.9-12.4   c-0.7-11.9,4.1-17.6,15.9-19.6c0.3,0,0.6-0.1,0.8-0.1c7.8-0.4,15.6-0.9,23.5-1.3c5.4-0.3,10.9-0.5,16.3-1.1   c5.2-0.5,10.2-1.8,14.8-4.3c9-4.8,14.4-12.1,15.3-22.5c0.9-10.2,1.2-20.4,0.1-30.6c-2.1-18.4-8.7-34.9-20.9-49   c-6.8-7.9-15-14.2-23.7-19.9c-5-3.3-10.6-4.5-16.4-4.2c-3.7,0.2-7.6,0.8-11.1,1.9c-6,1.9-11.8,4.4-17.6,6.7c-1,0.4-2,1.2-2.5,2.1   c-7.1,12.2-14.7,24.2-19.7,37.5c-4.5,11.8-6.5,24-5.3,36.6c0.5,5.8-1.2,9-6.5,11.4c-2.9,1.3-6.1,2-9,3.3c-3.4,1.5-6.8,3.3-9.9,5.3   c-1.1,0.7-2,2.5-2.1,3.8c-0.8,10.3,0.9,20,6.2,29.5C597.5,398.5,598.3,398.4,599.1,398.5z M661.3,320.4c1.3-6.5,4.7-12.2,9.5-16.9   c2.7-2.7,5.4-2.9,8.7-1.5c4.4,1.9,8.1,4.6,10.7,8.5c2.6,3.8,5,7.8,6.9,11.9c2.5,5.6,4.6,11.4,6.6,17.2c1.8,5.2,0.2,8.7-5,10.6   c-3,1.1-6.2,1.7-9.3,2.4c-6.5,1.6-12.9,3.5-19.7,3.4c-0.7,0-1.4,0.2-2.1,0.2c-6.8,0.1-10-3.1-10.3-9.8   C658.6,337.7,659.6,329,661.3,320.4z M824.3,129c-2.6-0.5-4.8,0.1-7,1.6c-7.4,5-15,9.9-22.7,14.4c-8.1,4.8-16.9,8.1-26.3,9.5   c-5,0.8-10,1.3-14.7-1.5c-1.9-1.1-4.2-1.5-6.3-2.3c-2.9-1.1-5.8-2.1-8.5-3.5c-5.2-2.7-8-6.8-7.3-12.9c0.4-4.1,0.9-4.7,5-4.9   c7.3-0.4,14.5-1.3,21.4-3.6c15.9-5.2,28.6-15,39.3-27.7c1.8-2.1,3.3-4.6,4.3-7.1c8.3-22.7,4.8-44-8-64.1c-0.4-0.6-0.8-1.3-1.3-1.6   c-5.5-3.5-10.9-7.3-16.7-10.4c-4.7-2.6-9.9-2.7-15.1-1.1c-12.5,3.8-23,10.7-31.9,20.2c-7.3,7.7-12.9,16.5-17.8,25.9   c-6.1,11.7-10.4,24.1-14.9,36.5c-2.9,7.7-3.2,15.6-2.5,23.6c0.8,8.6,3.3,16.7,6.9,24.5c4.4,9.3,10.4,17.6,16.4,25.8   c4.3,5.8,9.9,9.4,16.5,11.6c9.2,3.1,18.6,4,28.2,2.9c9.8-1.2,19.6-3,29.4-4.5c5.4-0.9,10.3-2.6,14.7-6.3c4.6-4,10.3-6.7,15.3-10.3   c4.2-3,8.3-6.3,11.8-10c5.7-6.2,7.2-13.7,4.5-22.3C832.8,130.5,828.6,129.8,824.3,129z M735.6,90.5c1-2.6,2.5-5,3.4-7.7   c3.2-10.1,10.3-17.8,16-26.3c2-3,5.3-5.3,8.3-7.5c4.3-3.4,12.3-1.2,14.6,5.5c1.2,3.5,1.4,7.2,0.7,10.8c-0.7,3.4-1.7,6.8-2.8,10   c-1.9,5.2-5.2,9.3-9.9,12c-3.5,2-7.2,3.6-10.9,5.2c-2.3,1-4.8,1.5-7.2,2.2c-3.4,0.9-6.7,1.8-10.3,2.8   C734.6,95.5,734.6,93,735.6,90.5z M1002.9,443c1.6-2.9,2.9-6,4.4-9.1c1.4-3,2.6-6.2,4.3-9.1c1.4-2.5,3.2-5,5.1-7.1   c2.8-3.1,3.7-3.1,7.3-1.1c2.8,1.6,5.4,3.5,8,5.4c2.5,1.8,4.9,3.7,7.4,5.5c4,2.7,8.3,4.6,13.2,5c6.5,0.5,12.4-0.7,17.4-5.5   c7.1-6.9,12.4-14.8,15.4-24.2c2-6.4,3.3-13.1,3.4-19.8c0.1-9.4-0.3-18.7-0.3-28.1c0-9.5,0.2-19,0.2-28.5c0-1.4,0.1-2.8-0.4-4.1   c-3.1-9.1-6.3-18.2-9.6-27.3c-2.7-7.7-6.1-15-11-21.6c-0.7-1-1.5-2.2-2.6-2.7c-4.1-1.7-8.3-3.4-12.5-4.7c-6.1-1.8-13.1,1.4-14.3,9   c-1.2,7.7-1.1,15.3,0.6,22.9c2.2,9.6,6.3,18.5,9.9,27.6c2.5,6.4,5,12.8,6.8,19.4c2.9,10.5,2.2,20.8-3.2,30.5   c-1.7,3-3.3,3.9-6.5,2.6c-1.9-0.7-3.7-2-5.1-3.5c-2.1-2.4-3.8-5.2-5.6-7.8c-2.2-3.1-4.1-6.4-6.5-9.2c-1.7-2-3.8-3.9-6-5.1   c-4.7-2.5-9.5-4.6-14.4-6.8c-2.5-1.1-5.1-2.3-7.8-3c-8.3-2.1-15.4,3-16.7,11.4c-2.6,16.9-3.7,33.9-4.3,51   c-0.3,9.8-0.9,19.6-1.3,29.4c-0.3,5.6-0.6,11.1-0.9,16.6C990.8,456.7,998.6,450.8,1002.9,443z M921.9,457.7   c4.5-0.7,9.2-1.5,13.3-3.5c10.7-5.2,19-13.3,24.5-23.9c2-3.9,3.8-8.2,4.5-12.5c2-13.1,1.6-26.2-1.5-39.2c-4.3-17.5-13-32-28.3-42.1   c-1.6-1-3.5-1.8-5.4-2.1c-8.8-1.2-16.1-5.1-22.1-11.7c-4.4-4.8-11.1-5.5-16.4-1.9c-2.4,1.6-4.5,3.8-6.5,5.9   c-2.6,2.6-4.8,5.5-7.5,7.9c-1.5,1.4-2.1,2.7-1.9,4.7c1.1,8.4-1.2,16.1-5.5,23.2c-2.6,4.3-5.6,8.4-8.1,12.7   c-2.7,4.6-5.5,9.1-7.6,13.9c-3.5,8-4.6,16.4-1.7,25c0.9,2.8,1.2,5.8,2.2,8.5c2,6.1,3.7,12.4,6.6,18.1c5.5,10.7,14.4,17.4,26.5,19   c3.9,0.5,7.8,0.6,13.3,1C906.4,459.7,914.1,458.9,921.9,457.7z M894.8,387.7c2-5.6,5-10.6,9.8-14.3c4.2-3.3,8.7-3.6,13.3-1.2   c5.4,2.8,8.6,7.5,10.8,12.9c0.3,0.8,0.3,1.9,0,2.8c-1.6,5.6-3.2,11.3-5.1,16.8c-0.9,2.6-2,5.2-3.4,7.6c-2.2,3.9-5.8,6-10.3,6.4   c-3.5,0.3-7,0.8-10.4,0.8c-6.3,0-8.8-2.8-8.6-9.2c0-1,0.1-2,0.2-2.6C891.5,400.7,892.5,394,894.8,387.7z M579.1,123.5   c0,1.1,0,2.3,0.2,3.3c0.8,4.6,2.8,8.1,8,8.9c3,0.5,4.6,2.6,5,5.5c0.2,1.4,0.5,2.8,0.4,4.2c-0.9,8.3,0.7,16.5,1.4,24.7   c0.4,4.7,1.1,9.5,2.5,14c2.1,6.7,6.9,10.3,14,10.6c2.1,0.1,3.8-0.4,5.4-1.8c4.9-4.3,7-9.7,6.1-16.1c-0.6-4.1-1.7-8.2-2.5-12.3   c-0.7-3.6-0.8-7.2,0.5-10.7c0.4-1.2,0.4-2.7,0.1-4c-1.3-7.7,0.8-10.6,8.6-11.5c1.5-0.2,3.1-0.2,4.6-0.2c3.8,0,7.6,0,11.3,0   c4.5,0,5.8,0.8,6.2,5.3c0.3,3.4,0.1,7-0.4,10.4c-1.1,7.6-2.2,15.2-0.4,22.9c1,4.3,3.3,7.4,7.2,9.2c5.8,2.6,11.8,2.7,18,1.6   c0.3-2.3,0.7-4.2,0.8-6.1c1.5-15.6,3-31.2,4.4-46.8c0.4-4.2,1.3-8,5.2-10.3c0.7-0.4,1.3-1.1,1.8-1.7c3.6-4,3.7-7.5-0.1-11.4   c-6.1-6.3-9-14-9.6-22.7C677.2,78.1,679,68,680,57.9c0.8-7.8,1.3-15.6,1.3-23.4c-0.1-7.4-4.4-12.6-10.9-15.7c-2.1-1-5-1.1-7.3-0.7   c-4.8,0.8-7.4,4.5-6.8,9.3c1.4,11.5-0.1,22.9-1.5,34.3c-1.6,12.5-3.6,24.9-3.5,37.6c0,3-1.4,4.8-3.9,5.8c-1.5,0.6-3.2,1.1-4.9,1.1   c-6,0-12-0.2-18.1-0.4c-0.4-1.8-0.9-3.3-1.1-4.8c-1.7-9.5-1.1-19-0.4-28.5c0.8-10,1.7-20.1,2.4-30.1c0.5-7.4-4.1-13.2-11.3-14.9   c-4.2-1-9.4,0.7-10.8,5.6c-0.8,2.8-1.9,5.6-2.5,8.4c-1.8,8.4-1.5,17-1.8,25.5c-0.3,7.1-0.6,14.3-1.7,21.3   c-1.5,10.6-6.7,18.9-16.9,23.4c-0.4,0.2-0.7,0.4-1.2,0.7C579.1,116.3,579.1,119.9,579.1,123.5z M501.5,158.3   c0,8.1-0.9,16.2-0.7,24.4c0.1,6.7,6,12,12.7,11.8c4.4-0.1,7.9-2.3,11.4-4.8c1.9-1.3,2.6-2.9,2.7-5.3c1-21.7,2-43.3,3.1-65   c0.3-6,2.3-8.8,8.1-10.6c2.9-0.9,6-1.6,9-1.8c11.4-0.6,21.1-4.9,29.5-12.5c4.9-4.4,8.2-9.6,8.6-16.3c0.1-2-0.1-4.4-1.2-5.9   c-3.2-4.8-7.8-7.8-13.8-7.4c-3.7,0.3-7.4,1.3-11,2.3c-4,1.1-7.9,3-11.9,3.9c-2.9,0.7-6.1,0.7-9.1,0.5c-3-0.3-3.8-1.8-3.1-4.7   c0.6-2.3,1.7-4.5,2.2-6.8c0.5-2.3,1-4.8,0.4-6.9c-2-7.3-7.1-11.9-14.2-14.2c-1.4-0.5-2.6-0.4-3.9,0.5c-8.1,6.2-13.6,13.9-14.7,24.4   c-0.2,1.6-0.8,3.3-1.6,4.6c-4.1,6.9-10.7,8.6-18.1,7.8c-5-0.6-9.9-1.7-14.8-2.7c-6.2-1.3-12.3-2.7-18.7-2.1   c-6.6,0.5-11.7,3.6-14.8,9.6c-1.3,2.6-2.1,5.4-3.1,8.2c-0.7,1.9-0.1,3.5,1.2,5c3.8,4.5,8.4,7.8,13.7,10.1   c5.7,2.4,11.7,3.8,17.9,4.3c8.5,0.7,17,1.2,25.5,1.7c2.3,0.1,3.7,0.9,4.3,3.1c1.2,4.9,3,9.7,3.4,14.6   C501.4,138.2,501.3,148.2,501.5,158.3z M342.7,292.5c-3.2,12.1-4.9,24.4-5,36.9c-0.2,17.5,0,35-0.1,52.5   c-0.1,9.8-0.7,19.6-4.3,28.9c-0.9,2.2-1.4,4.6-1.9,6.9c-2.7,10.9-4.5,21.9-3.7,33.2c0.7,9.4,3.4,18.1,8.9,25.8   c1.9,2.7,4.2,3.8,7.3,4.1c14.4,1.3,21.9-7.5,26.1-17.5c0.4-0.9,0.3-2.2,0.2-3.3c-2.2-13.1-1.2-26.2,0.8-39.3   c2.1-14.1,4.6-28.1,6.6-42.3c1.6-11.5,1.6-23.2-0.4-34.7c-1.4-8.1-2.9-16.2-4.4-24.3c-1.6-8.6-3.9-16.8-9.2-24.1   c-2.7-3.8-6.2-5.5-10.7-5.5c-3.1,0-6.1,0-9.5,0C343.1,291.2,342.9,291.9,342.7,292.5z"/>
</g>
</svg>
