<?xml version="1.0" encoding="utf-8"?>
<!-- Generator: Adobe Illustrator 21.0.0, SVG Export Plug-In . SVG Version: 6.00 Build 0)  -->
<svg xmlns="http://www.w3.org/2000/svg" xmlns:xlink="http://www.w3.org/1999/xlink" version="1.1" id="圖層_1" x="0px" y="0px" width="244.3337708px" height="133.8574066px" viewBox="0 0 244.3337708 133.8574066" style="enable-background:new 0 0 244.3337708 133.8574066;" xml:space="preserve">
<path d="M0,14.9706926h9.703125v23.34375l0.3515625-0.0703125l3.6210938-23.2734375h9.84375L17.859375,40.8105354  l6.3984375,32.6250038H14.2382813l-4.1835938-28.3710976H9.703125v28.3710976H0V14.9706926z"/>
<path d="M37.0405273,14.9706926h19.828125v7.7695322h-4.921875v50.6953125h-9.984375V22.7402248h-4.921875V14.9706926z"/>
<path d="M81.8729935,26.2910061v8.6132793H71.8534622v-9.9843731c0-0.9370117-0.1289063-1.59375-0.3867188-1.96875  c-0.2583008-0.3745117-0.6801758-0.5625-1.265625-0.5625c-0.5395508,0-0.9262695,0.1933594-1.1601563,0.5800781  c-0.234375,0.3867188-0.3515625,1.0371094-0.3515625,1.9511719v38.6367188c0,0.8911171,0.128418,1.5239296,0.3867188,1.8984413  c0.2578125,0.375,0.6796875,0.5625,1.265625,0.5625c0.5625,0,0.9545898-0.1757813,1.1777344-0.5273438  c0.2226563-0.3515625,0.3339844-0.9960938,0.3339844-1.9335976v-14.90625h10.0195313v13.4648438  c0,5.1562538-0.6914063,8.4023476-2.0742188,9.7382851c-1.3833008,1.3359375-4.512207,2.0039063-9.3867188,2.0039063  c-5.015625,0-8.2148438-0.6733398-9.5976563-2.0214844c-1.3833008-1.3476563-2.0742188-4.5878906-2.0742188-9.7207069V26.2910061  c0-5.203125,0.6855469-8.4492188,2.0566406-9.7382813c1.3710938-1.2885752,4.5292969-1.9335947,9.4746094-1.9335947  c5.0390625,0,8.2319336,0.6679688,9.5800781,2.0039072C81.1991653,17.9589748,81.8729935,21.1816311,81.8729935,26.2910061z"/>
<path d="M84.3969193,14.9706926h9.9140625v22.3242188h3.234375V14.9706926h9.9492188v58.4648476h-9.9492188V44.9941292h-3.234375  v28.4414101h-9.9140625V14.9706926z"/>
<path d="M110.7572708,14.9706926h15.9609375v7.6289072h-5.9765625v14.9062481h5.9765625v7.6992188h-5.9765625v20.5312538h5.9765625  v7.6992188h-15.9609375V14.9706926z"/>
<path d="M129.6996613,14.9706926h8.9301758l5.4492188,29.1445313h0.4570313l-0.1757813-29.1445313h8.6484375v58.4648476h-8.859375  l-5.5195313-29.9531288h-0.4570313l0.2109375,29.9531288h-8.684082V14.9706926z"/>
<path d="M0,74.9706955h8.9296875l5.4492188,29.1445313h0.4570313l-0.1757813-29.1445313h8.6484375v58.4648361h-8.859375  l-5.5195313-29.9531174H8.4726563l0.2109375,29.9531174H0V74.9706955z"/>
<path d="M26.6416016,74.9706955h9.984375v58.4648361h-9.984375V74.9706955z"/>
<path d="M39.5717773,86.3613205c0-5.1796875,0.7148438-8.4316406,2.1445313-9.7558594  c1.4291992-1.3237305,4.628418-1.9863281,9.5976563-1.9863281c4.8745117,0,8.015625,0.6801758,9.421875,2.0390625  c1.40625,1.359375,2.109375,4.59375,2.109375,9.703125v8.6132813H52.8256836V84.9199142  c0-1.0073242-0.1230469-1.6816406-0.3691406-2.0214844c-0.2460938-0.3393555-0.6738281-0.5097656-1.2832031-0.5097656  c-0.5859375,0-1.0078125,0.1757813-1.265625,0.5273438c-0.2583008,0.3515625-0.3867188,1.0195313-0.3867188,2.0039063v38.6367188  c0,0.9140625,0.1347656,1.5527344,0.4042969,1.9160156c0.269043,0.3637695,0.7084961,0.5449219,1.3183594,0.5449219  c0.5854492,0,0.9960938-0.1699219,1.2304688-0.5097656c0.2338867-0.3393555,0.3515625-0.9897461,0.3515625-1.9511719v-12.7265625  h-1.5117188v-7.6992188h11.53125v30.3046799h-4.1835938l-1.6523438-3.375c-1.0546875,1.40625-2.2148438,2.390625-3.4804688,2.953125  s-2.965332,0.84375-5.0976563,0.84375c-3.1640625,0-5.4316406-0.7612305-6.8027344-2.2851563  c-1.3710938-1.5234375-2.0566406-4.1132736-2.0566406-7.7695236V86.3613205z"/>
<path d="M66.615181,74.9706955h9.9140625v22.3242188h3.234375V74.9706955h9.9492188v58.4648361h-9.9492188V104.994133h-3.234375  v28.4413986H66.615181V74.9706955z"/>
<path d="M92.6591263,74.9706955h19.828125v7.7695313h-4.921875v50.6953049h-9.984375V82.7402267h-4.921875V74.9706955z"/>
<path d="M115.2243042,74.9706955h11.6367188l3.6914063,28.0195313h0.4921875l3.6914063-28.0195313h11.6362305v58.4648361h-8.8945313  l0.3515625-34.5585861h-0.5976563l-3.7963867,34.5585861h-5.2734375l-3.796875-34.5585861h-0.5976563l0.3867188,34.5585861  h-8.9296875V74.9706955z"/>
<path d="M154.02948,74.9706955h13.2890625l5.90625,58.4648361h-9.703125l-0.7382813-12.4453049h-4.1484375l-0.7382813,12.4453049  h-9.6328125L154.02948,74.9706955z M160.5685425,86.572258l-1.5820313,26.6484375h3.375l-1.5117188-26.6484375H160.5685425z"/>
<path d="M175.397644,74.9706955h12.234375c4.359375,0,7.2597656,0.7329102,8.7011719,2.1972656  c1.4414063,1.4648438,2.1621094,4.6933594,2.1621094,9.6855469v7.6289063c0,3.2817383-0.3339844,5.5898438-1.0019531,6.9257813  s-1.8457031,2.390625-3.5332031,3.1640625c1.640625,0.6328125,2.8066406,1.6118164,3.4980469,2.9355469  c0.6914063,1.3242188,1.0371094,3.3457031,1.0371094,6.0644531v19.8632736h-9.9492188v-21.6562424  c0-0.9609375-0.1816406-1.6464844-0.5449219-2.0566406c-0.3632813-0.409668-0.9667969-0.6152344-1.8105469-0.6152344  c-0.09375,0-0.2285156,0.012207-0.4042969,0.0351563c-0.1757813,0.0234375-0.3105469,0.0351563-0.4042969,0.0351563v24.2578049  h-9.984375V74.9706955z M185.382019,82.5996017v17.859375c0.1171875,0,0.2753906,0.012207,0.4746094,0.0351563  c0.1992188,0.0234375,0.3339844,0.0351563,0.4042969,0.0351563c0.890625,0,1.4941406-0.2050781,1.8105469-0.6152344  c0.3164063-0.409668,0.4746094-1.2128906,0.4746094-2.4082031V86.291008c0-1.7578125-0.1640625-2.8125-0.4921875-3.1640625  s-0.9960938-0.5273438-2.0039063-0.5273438H185.382019z"/>
<path d="M201.6173706,74.9706955h15.9609375v7.6289063h-5.9765625v14.90625h5.9765625v7.6992188h-5.9765625v20.53125h5.9765625  v7.6992111h-15.9609375V74.9706955z"/>
<path d="M244.3337708,86.291008v8.8242188h-9.9492188v-10.265625c0-0.890625-0.1289063-1.5234375-0.3867188-1.8984375  c-0.2578125-0.3745117-0.6796875-0.5625-1.265625-0.5625c-0.515625,0-0.8847656,0.1816406-1.1074219,0.5449219  c-0.2226563,0.3637695-0.3339844,1.0019531-0.3339844,1.9160156v9.0703125c0,1.0546875,0.1523438,1.8105469,0.4570313,2.2675781  s0.9023438,0.9438477,1.7929688,1.4589844l6.1171875,3.515625c1.6640625,0.9614258,2.859375,2.0917969,3.5859375,3.3925781  s1.0898438,3.1235352,1.0898438,5.4667969v12.1992188c0,5.203125-0.6796875,8.4433517-2.0390625,9.7206955  c-1.359375,1.277832-4.546875,1.9160156-9.5625,1.9160156c-4.8984375,0-8.0449219-0.6733398-9.4394531-2.0214844  c-1.3945313-1.3476563-2.0917969-4.5527267-2.0917969-9.6152267v-12.9023438h10.0898438v14.2382813  c0,0.8911133,0.1347656,1.5351563,0.4042969,1.9335938c0.2695313,0.3989258,0.6855469,0.5976563,1.2480469,0.5976563  c0.515625,0,0.8847656-0.1933594,1.1074219-0.5800781s0.3339844-1.0371094,0.3339844-1.9511719v-12.375  c0-1.0546875-0.140625-1.7929688-0.421875-2.2148438s-0.8789063-0.9018555-1.7929688-1.4414063l-6.4335938-3.7617188  c-1.6171875-0.9370117-2.7773438-2.0859375-3.4804688-3.4453125c-0.703125-1.3588867-1.0546875-3.2573242-1.0546875-5.6953125  V86.291008c0-5.0625,0.6914063-8.2734375,2.0742188-9.6328125c1.3828125-1.3588867,4.5585938-2.0390625,9.5273438-2.0390625  c4.8984375,0,8.0449219,0.6503906,9.4394531,1.9511719S244.3337708,81.1113205,244.3337708,86.291008z"/>
<path d="M36.9227905,28.730154c-0.0083618-0.7006226-0.0166626-1.4012451-0.0213013-2.1018066  c0.000061-0.0095215,0.000061-0.0185547-0.0002441-0.0275879c-0.0407715-0.0031128-0.0890503-0.0064697-0.145874-0.0085449  c-0.9232178-0.0377197-1.8538208-0.0996704-2.7536011-0.15979c-0.3790894-0.0250854-0.7581787-0.0501709-1.137085-0.0737305  l-1.2317505-0.076355l0.2269897-1.213501l0.1625366-0.8503418c0.1276855-0.6612549,0.2649536-1.3713989,0.383606-2.085083  c0.6121826-3.6890869,0.7718506-6.675355,0.5023193-9.3963022c-0.1376343-1.3900757-0.3783569-2.8126831-0.611145-4.1878662  C32.218689,8.0842791,32.1400757,7.619802,32.0650635,7.15447c-0.1882324-1.1654053-0.0079346-2.1500854,0.5511475-3.0094604  c0.1746826-0.2683716,0.3113403-0.5949707,0.4109497-0.8499146c0.336731-0.8600464,0.0578003-1.8189087-0.6942749-2.3867798  c-0.7022095-0.5304565-1.5668945-0.824707-2.6442871-0.8997803c-0.0512695-0.003418-0.1018677-0.0058594-0.1517334-0.0072021  c-0.9190063-0.0255737-1.4146118,0.3151245-1.7107544,1.1762695c-0.2610474,0.7593384-0.4221191,1.5861816-0.4660645,2.3916626  c-0.0786133,1.4382324-0.0946045,2.9168701-0.1102905,4.3463135c-0.0054321,0.4837031-0.0108643,0.9673457-0.0182495,1.4505  c-0.0871582,5.5893555-0.1730957,11.1792612-0.2527466,16.7683716c-0.0234375,1.6373291-0.0421143,3.2747803-0.060791,4.9117432  c-0.0183716,1.6164532-0.0366821,3.2328472-0.0595703,4.8486309c-0.0236816,1.6739502-0.0514526,3.3482666-0.0791626,5.0220337  c-0.0501099,3.0299072-0.1020508,6.1625977-0.1272583,9.241272c-0.0289917,3.5795288-0.0106812,6.8168945,0.055603,9.8971558  c0.0674438,3.1384888,0.2220459,6.8479042,0.8563232,10.5616493c0.1461792,0.8563843,0.3560181,1.713562,0.6379395,2.5827637  c0.4354858-0.5153198,0.8197632-1.0280762,1.1449585-1.5274658c1.5311279-2.3509521,2.7616577-5.1254883,3.8731079-8.7310219  c1.3994141-4.5396729,2.3338013-9.4316406,2.7769165-14.5408325c0.3917236-4.5155029,0.6873779-8.9123535,0.8786011-13.0679321  C36.9758301,33.1462288,36.9489746,30.9013577,36.9227905,28.730154z"/>
</svg>
