<?xml version="1.0"?>
<svg xmlns="http://www.w3.org/2000/svg" id="Layer_1" data-name="Layer 1" viewBox="0 0 1830.04 1035.53">
  <defs>
    <style>.cls-1{fill:#fff;}</style>
  </defs>
  <path class="cls-1" d="M1252.64,810.38v230.16c0,1.83.08,3.68-.08,5.51-.47,5.3-3.55,8.47-8.86,8.7-5.7.25-11.41.15-17.11.18q-40.85.13-81.69.26c-8.7,0-10.88-1.66-13.14-10.13Q1100.85,929.14,1070,813.21a18.7,18.7,0,0,0-1.22-4.22c-.63-1.13-1.82-2.68-2.82-2.72-2.11-.1-2.34,1.88-2.35,3.61s0,3.68,0,5.52q.29,112.32.59,224.64c0,2,.1,4.06-.07,6.07-.45,5.5-3.67,8.71-9.15,9.22-1.46.14-2.94.09-4.41.09l-77.27.09c-1.11,0-2.22.06-3.31,0-4.67-.44-7.89-3.31-8.53-8a58.15,58.15,0,0,1-.27-7.71l-.69-426.1c0-12.14-.1-24.28-.07-36.43,0-8.66,2.91-11.61,11.63-11.64q47.73-.18,95.48-.18c6.85,0,9.41,2.07,11.26,8.92q19.92,73.43,39.81,146.86,11.16,41.25,22.32,82.5a14.52,14.52,0,0,0,1.46,4.12,3.59,3.59,0,0,0,2.71,1.21,2.64,2.64,0,0,0,1.81-1.71,23.77,23.77,0,0,0,.32-4.93q-.26-107.07-.52-214.15c0-4.23-.12-8.47,0-12.7.24-6.92,3.46-10.21,10.27-10.23q42.22-.15,84.45-.12c7.28,0,10.39,3.33,10.44,11.12.11,17.85.12,35.7.13,53.54q0,90.24,0,180.49Z" transform="translate(-41.27 -20)"/>
  <path class="cls-1" d="M1081.44,260q-.42,112.33-.75,224.65c0,11.19-3.33,15.38-15.4,15.18-29.8-.51-59.6-.45-89.41-.6-9.26,0-11.47-1.69-13.82-10.76q-28.3-108.92-56.6-217.84c-.46-1.78-.88-3.57-1.41-5.33s-1.48-3.55-3.76-3.34-3,1.93-3,3.94c-.09,2.21-.12,4.41-.13,6.62q-.4,106-.81,212c0,11.81-2.82,14.5-14.8,14.46q-36.43-.12-72.86-.36c-10-.08-13.08-3.31-13-13.42q.54-125.56,1.09-251.14.43-99.36.85-198.71c0-1.29,0-2.58,0-3.86.26-7.52,3.89-11.31,11.27-11.3q46.63.12,93.28.41c6.92,0,9.58,2.29,11.49,9.5Q930,91.85,946.33,153.69q12.9,48.76,25.78,97.55a27,27,0,0,0,1.68,5.22,2.44,2.44,0,0,0,4.67-.56,20.71,20.71,0,0,0,.28-4.93q.46-106.82.92-213.61c0-1.66,0-3.32,0-5,.21-7.79,3.88-11.5,11.6-11.54,9.2,0,18.4,0,27.59.08q25.12.09,50.23.2a27.17,27.17,0,0,1,5.49.39,9.37,9.37,0,0,1,7.73,8.84c.12,1.28.08,2.57.08,3.86Q1082,147.1,1081.64,260Z" transform="translate(-41.27 -20)"/>
  <path class="cls-1" d="M769.23,565.21c18.4,0,36.8.14,55.19-.08,6.9-.08,10.9,1.67,12.46,10.09q9.4,50.4,19,100.77,12.35,65.28,24.74,130.55,13,68.79,26,137.59,9,47.67,18.07,95.34a38.86,38.86,0,0,1,.78,4.89c.4,6.07-2.87,9.83-8.87,10.27-1.28.09-2.57,0-3.86,0l-82.23.14c-8.73,0-11.23-2.12-12.41-10.5q-4.89-34.68-9.82-69.36c-1-6.93-4-9.66-11-9.66q-28.15,0-56.29.18c-8,0-10.59,2.2-11.76,10.06-3.14,21.1-6.15,42.21-9.21,63.31-.34,2.37-.67,4.74-1,7.1-1,6.27-4,9.1-10.29,9.3-6.62.21-13.25.12-19.87.13l-61.81,0a23.45,23.45,0,0,1-3.85-.14c-5.76-.93-8.77-5.52-7.66-11.86,1.78-10.14,3.68-20.26,5.53-30.39q12-65.64,24-131.27,13-71.07,25.94-142.14,12.46-68.36,24.89-136.72c1.75-9.58,3.5-19.16,5.36-28.72,1.23-6.36,4.11-8.75,10.65-8.77,19.13-.06,38.26,0,57.39,0Zm-.64,317.9v-.05c6.62,0,13.25.15,19.86,0,6.92-.19,10.37-4.4,9.45-11.24q-4.32-32.25-8.69-64.49-6.44-47.28-12.9-94.55c-2-14.39-3.86-28.79-5.83-43.18-.24-1.79-.32-4-2.77-4.14-2.63-.18-2.52,2.13-2.93,3.86-.17.71-.29,1.44-.39,2.17l-8.88,71.14q-8.07,64.57-16.14,129.15c-.88,7,2.66,11.22,9.9,11.34C755.71,883.19,762.15,883.11,768.59,883.11Z" transform="translate(-41.27 -20)"/>
  <path class="cls-1" d="M610.45,20.56c17.84,0,35.68,0,53.52,0,9.07,0,11.59,2.21,13.25,11.23Q691,106.92,704.73,182q15.21,83,30.44,165.92,12.66,69.13,25.27,138.29c1.45,8-2.53,13-10.58,13q-41.1,0-82.22-.21c-7.52,0-10.77-2.93-11.78-10.29q-4.43-32.25-8.72-64.51c-.13-.91-.2-1.83-.35-2.73-1.2-7.24-4.15-9.9-11.43-10-10.85-.15-21.7-.17-32.55-.25-7-.05-14-.14-21-.15-8,0-11.05,2.42-12.29,10.29-3.29,20.87-6.42,41.78-9.62,62.67-.25,1.63-.51,3.27-.83,4.89-1.31,6.79-4.34,9.55-11.31,9.54q-39.72-.09-79.45-.45c-7.57-.07-11.54-4.85-10.18-12.31,4.12-22.61,8.39-45.18,12.65-67.76q11.85-62.88,23.76-125.73,13.57-71.81,27.13-143.6c7.23-38.3,14.6-76.57,21.63-114.9,2.22-12.11,5.61-13.92,16.35-13.7,16.92.36,33.85.1,50.77.1Zm-1.92,310.25V331h8.83c3.12,0,6.25.13,9.37,0,7.27-.34,11-4.71,10.34-12-.1-1.09-.34-2.18-.48-3.27Q630.3,267.06,624,218.39q-5.79-44.85-11.53-89.69a21.8,21.8,0,0,0-.93-5.41,4.82,4.82,0,0,0-3-2.47c-.65-.13-2.18,1.36-2.43,2.35a71.18,71.18,0,0,0-1.24,8.15q-5.85,44-11.69,88-6.51,49.17-13,98.36c-1.11,8.42,2.66,13,11.23,13.14C597.13,330.9,602.83,330.81,608.53,330.81Z" transform="translate(-41.27 -20)"/>
  <path class="cls-1" d="M41.31,809.53q0-113.4,0-226.8c0-2.58-.09-5.15,0-7.73.26-6.12,3.55-9.31,9.77-9.6.73,0,1.47,0,2.2,0q68.43-.09,136.86-.2c18.84,0,37.44,1.86,55.68,6.72.71.19,1.41.42,2.12.6,26.58,6.63,43.88,23.44,53.65,48.65,6,15.56,9.21,31.74,11,48.23,2.73,25,2.64,50,.93,74.94-1.12,16.53-3.28,32.93-8.29,48.82-1.1,3.5-2.34,7-3.71,10.38-9.8,24.43-27.57,39.83-53,46.59-15.06,4-30.45,5-45.93,5.16-13.61.11-27.22.05-40.83.07-1.48,0-3,0-4.42,0-6.62.28-9.58,3.3-9.7,10.05-.09,5.15,0,10.3,0,15.45q.17,80.85.32,161.69c0,.37,0,.74,0,1.1-.09,8.11-3.21,11.2-11.48,11.3-5.51.07-11,.13-16.55.15q-32.28.11-64.56.17a32.82,32.82,0,0,1-5-.17c-4.9-.73-7.84-3.91-8.29-8.86-.11-1.28-.06-2.58-.06-3.86V809.53ZM207.91,714c-.59-12-.6-20.51-1.55-28.9a103.58,103.58,0,0,0-4.15-19.89c-3.22-10.09-10.49-16.6-21-18.1-8.49-1.22-17.19-1.32-25.8-1.37-4.73,0-7.67,3.39-8.17,8.11a33,33,0,0,0-.05,3.85q.06,49.65.14,99.3c0,3.13-.11,6.27.14,9.38.44,5.33,3.63,8.66,8.89,8.62a206.55,206.55,0,0,0,23.08-1.13c11.89-1.44,19.79-8.2,23.4-19.72a33.57,33.57,0,0,0,1.66-6.39C205.84,735.33,207,722.91,207.91,714Z" transform="translate(-41.27 -20)"/>
  <path class="cls-1" d="M1317,810.37q0-115.07,0-230.13c0-1.84-.08-3.69,0-5.52.34-5.55,3.47-8.8,9-9.17,3.3-.21,6.62-.08,9.93-.09l194.81-.26c1.47,0,3-.06,4.41.06,5,.41,8,3.47,8.47,8.48.11,1.28.07,2.57.07,3.86,0,20.78-.19,41.58.19,62.36.17,9.45-4.65,12.16-12.33,12.13-30.54-.12-61.08.08-91.61.16-2.76,0-5.52,0-8.28,0-7.25.18-10.28,3.21-10.37,10.59-.09,7.73,0,15.45,0,23.18q.09,29.52.21,59.05a45.58,45.58,0,0,0,.14,5c.56,5,3.6,7.89,8.69,8.29,1.64.13,3.31,0,5,0l83.89-.1c.92,0,1.84,0,2.75,0,6.31.2,9.48,3.25,9.57,9.56.12,9.57,0,19.13.06,28.7,0,12.51.09,25,.1,37.53,0,8.7-2.84,11.64-11.5,11.66q-41.94.12-83.88.15c-1.29,0-2.57,0-3.86,0-7.7.17-10.59,3-10.59,10.81q0,49.95.14,99.89c0,7.93,3,10.75,11.18,10.75q55.18,0,110.37-.14c1.66,0,3.32-.07,5,0,5.52.33,8.83,3.57,9.25,9,.07.91,0,1.84,0,2.76l.09,63.46q0,.55,0,1.11c-.12,8-3.07,11.07-10.93,11.15q-16,.16-32,.24-71.19.24-142.38.44-21,.06-41.94,0c-1.29,0-2.58,0-3.86-.07-5.28-.51-8.39-3.54-8.86-8.82-.24-2.74-.19-5.51-.19-8.27q0-114,0-227.92Z" transform="translate(-41.27 -20)"/>
  <path class="cls-1" d="M1145.12,259q.48-112.32,1-224.62c0-1.11,0-2.21,0-3.31.22-7.15,3.88-10.91,11-11,8.64-.08,17.29,0,25.93,0l171.64.75h1.65c7.85.16,11.51,3.73,11.67,11.46,0,2.58,0,5.15,0,7.73q-.09,25.94-.21,51.88c0,.92,0,1.84,0,2.75-.38,7.36-4.12,11.05-11.6,11.05-19.31,0-38.63-.13-57.94-.23-12.7-.06-25.39-.22-38.08-.24-9,0-12.27,3.31-12.3,12.35q-.18,39.74-.27,79.47c0,8.66,3.19,11.86,12.07,11.93q40,.28,80,.48a63.29,63.29,0,0,1,6.61.18,9.51,9.51,0,0,1,8.56,8.68,23,23,0,0,1,.08,2.75q-.09,30.92-.19,61.82a19.32,19.32,0,0,1-.38,4.37,9.59,9.59,0,0,1-8.52,7.49,38.14,38.14,0,0,1-4.41.08l-81.69-.25H1258c-7.3.13-10.92,3.49-11.09,10.77-.19,8.27-.11,16.55-.13,24.83L1246.6,396c0,2.2,0,4.41,0,6.62.16,7.26,3.54,10.76,10.92,10.89,10.48.19,21,.19,31.46.23q38.36.17,76.71.28c1.1,0,2.21,0,3.31,0,6.17.35,10,4,10,10.15q.08,32.3-.2,64.57c-.07,7.23-4,10.65-11.83,10.65-18.58,0-37.16-.12-55.74-.19l-149.57-.57c-2.75,0-5.53.07-8.27-.21-5.65-.58-8.93-4.07-9.3-9.78-.16-2.56-.05-5.15,0-7.72q.56-110.92,1.1-221.86Z" transform="translate(-41.27 -20)"/>
  <path class="cls-1" d="M320.13,215.32,321,36.5c0-1.83,0-3.68.08-5.51.32-7.32,3.78-10.78,11-10.87,6.07-.07,12.15,0,18.22,0l59.6.26c1.84,0,3.68,0,5.52.12,5.84.45,9.35,4.05,9.73,9.94.07,1.1,0,2.21,0,3.31q-.72,167.51-1.48,335c-.1,20.62-1.2,41.18-6.13,61.34-4.09,16.71-10.66,32.07-23.49,44.15a106.69,106.69,0,0,1-29.26,19.47c-25.6,11.66-52.55,14.87-80.31,12.5-20.94-1.79-41-6.92-59.3-17.54-27.25-15.8-43.05-39.49-47.28-70.65A219,219,0,0,1,176.07,390c-.14-23.91.16-47.83.29-71.74,0-.74,0-1.47,0-2.21.29-7.58,3.77-11.13,11.3-11.19,9.39-.07,18.77,0,28.15.07q23.46.09,46.91.22c1.47,0,2.95-.05,4.41.09,5.93.59,9.39,4,9.74,10,.23,3.85,0,7.73,0,11.59.09,22.62,0,45.25.41,67.86A63.82,63.82,0,0,0,280,410.94c2.88,10.11,9.22,14,20,13.23,9.57-.7,16.91-7,18-16.32a194.75,194.75,0,0,0,1.33-22q.57-85.26.89-170.53Z" transform="translate(-41.27 -20)"/>
  <path class="cls-1" d="M1778.83,853.4v189.27a28.19,28.19,0,0,1-.13,4.41c-.61,4-2.86,6.75-6.89,7.66a25,25,0,0,1-5.47.45q-39.73.11-79.46.14c-1.1,0-2.21.05-3.31-.06-5.48-.53-8.68-3.73-8.93-9.31-.23-5.32-.18-10.66-.19-16l-.54-290.79q-.06-36.7-.1-73.39c0-1.84.08-3.69-.09-5.52-.46-4.93-3.61-8.1-8.5-8.56-1.46-.14-2.94-.06-4.41-.06l-66.77.09c-1.28,0-2.57,0-3.86,0-6.25-.24-9.44-3.28-9.67-9.61-.2-5.51-.07-11-.08-16.55,0-15.82-.11-31.64-.11-47.46,0-9.57,2.88-12.47,12.58-12.49q89.67-.18,179.34-.29l85-.12a51.12,51.12,0,0,1,6.07.13,8.11,8.11,0,0,1,7.39,6.42,22.69,22.69,0,0,1,.53,5.46q.09,31.17.11,62.35v.55c-.13,7.92-3.22,11.1-11,11.21-5.52.08-11,0-16.56.06q-26.76,0-53.52.06c-9.48,0-12.19,2.66-12.17,12.14q.18,76.7.44,153.4c0,12.14,0,24.28,0,36.42Z" transform="translate(-41.27 -20)"/>
  <path class="cls-1" d="M1495.43,301.4q0-92.17,0-184.35a19.25,19.25,0,0,0-1.24-7.49c-1.64-3.75-5.13-5-9.1-5-9.39,0-18.77-.12-28.15-.19-13.43-.09-26.86-.14-40.29-.31a17.36,17.36,0,0,1-6.45-1c-4.18-1.8-5.66-5.43-5.63-9.87.09-12.33.1-24.66.14-37,0-7.73.34-15.47,0-23.18-.33-8.45,4-13.08,13-13,50.23.45,100.46.53,150.69.73l107.08.41a30.19,30.19,0,0,1,5,.2,9.82,9.82,0,0,1,8.38,8.37,24.82,24.82,0,0,1,.22,4.4q-.18,29.53-.45,59.06a16.92,16.92,0,0,1-1,6.45c-1.93,4.44-5.83,5.68-10.43,5.64-15.09-.13-30.18-.15-45.26-.22-7.36,0-14.72-.08-22.08-.07-9,0-12.19,3.26-12.23,12.38q-.48,99.9-.93,199.81-.4,84.16-.81,168.35a45.58,45.58,0,0,1-.16,5,9.41,9.41,0,0,1-8.57,8.63,27.92,27.92,0,0,1-3.3.09q-38.64-.1-77.28-.23c-9.24,0-12.67-3.44-12.63-12.66q.36-92.44.75-184.9Z" transform="translate(-41.27 -20)"/>
  <path class="cls-1" d="M356.43,809.44V578.72c0-.92,0-1.84,0-2.76.19-7.53,3.27-10.61,10.92-10.63q41.12-.11,82.24-.12c9,0,11.86,2.88,11.87,11.92q.19,117,.35,234c.08,47.84.29,95.68.17,143.52,0,9.41,2.93,13.6,13.34,13.5,32.94-.34,65.87-.07,98.8-.42,10.44-.11,13.81,3.11,13.64,13.58-.33,20.23-.06,40.48,0,60.71a43.36,43.36,0,0,1-.08,4.42,8.65,8.65,0,0,1-7.81,8,36,36,0,0,1-4.41.12q-98.52.29-197,.54c-3.31,0-6.62,0-9.93,0-8-.18-11-3.23-11.25-11-.05-1.84,0-3.68,0-5.52V809.44Z" transform="translate(-41.27 -20)"/>
</svg>
